<svg width="736" height="628" viewBox="0 0 736 628" fill="none" xmlns="http://www.w3.org/2000/svg">
<path d="M522.561 160.288C528.309 162.976 532.785 167.796 535.043 173.727C535.043 173.727 534.042 158.595 541.049 152.574C541.049 152.574 534.705 157.594 533.365 164.954C530.328 162.325 526.556 160.696 522.561 160.288Z" fill="#263238"/>
<path d="M491.398 122.354C491.398 122.354 503.027 131.392 506.207 139.723C506.207 139.723 507.988 130.788 516.408 128.109C514.415 128.08 512.444 128.536 510.667 129.439C508.889 130.341 507.359 131.664 506.207 133.29C502.571 128.151 497.38 124.317 491.398 122.354Z" fill="#263238"/>
<path d="M478.975 161.671C478.975 161.671 488.498 160.199 493.062 165.998C493.062 165.998 490.235 157.343 493.062 151.484C493.062 151.484 489.293 153.898 490.603 162.598C490.603 162.598 486.982 158.859 478.975 161.671Z" fill="#263238"/>
<path d="M736 481.933H0V482.301H736V481.933Z" fill="#EBEBEB"/>
<path d="M202.635 491.957H153.883V492.325H202.635V491.957Z" fill="#EBEBEB"/>
<path d="M311.902 505.44H251.918V505.808H311.902V505.44Z" fill="#EBEBEB"/>
<path d="M152.41 500.833H77.2207V501.201H152.41V500.833Z" fill="#EBEBEB"/>
<path d="M662.252 494.43H525.15V494.798H662.252V494.43Z" fill="#EBEBEB"/>
<path d="M470.215 500.642H408.053V501.01H470.215V500.642Z" fill="#EBEBEB"/>
<path d="M348.865 416.282H64.6365C62.4099 416.278 60.2758 415.39 58.7027 413.815C57.1296 412.239 56.2461 410.103 56.2461 407.876V8.33152C56.2655 6.11767 57.1575 4.00086 58.7285 2.4409C60.2995 0.88093 62.4226 0.00379244 64.6365 0H348.865C351.094 0 353.232 0.885537 354.808 2.4618C356.385 4.03807 357.27 6.17594 357.27 8.40512V407.876C357.27 410.106 356.385 412.244 354.808 413.82C353.232 415.396 351.094 416.282 348.865 416.282ZM64.6365 0.294401C62.5075 0.2983 60.467 1.14678 58.9629 2.65361C57.4588 4.16044 56.6141 6.20249 56.6141 8.33152V407.876C56.6141 410.005 57.4588 412.048 58.9629 413.554C60.467 415.061 62.5075 415.91 64.6365 415.914H348.865C350.994 415.906 353.034 415.057 354.54 413.551C356.045 412.045 356.894 410.006 356.902 407.876V8.33152C356.894 6.20233 356.045 4.16256 354.54 2.65699C353.034 1.15141 350.994 0.302158 348.865 0.294401H64.6365Z" fill="#EBEBEB"/>
<path d="M667.271 416.282H383.028C380.801 416.274 378.668 415.386 377.093 413.811C375.519 412.237 374.631 410.103 374.623 407.876V8.33152C374.646 6.11633 375.542 3.99954 377.115 2.43998C378.688 0.880416 380.813 0.00375108 383.028 0H667.271C669.483 0.00766102 671.602 0.886511 673.17 2.44606C674.738 4.00562 675.628 6.12021 675.647 8.33152V407.876C675.649 408.978 675.434 410.07 675.014 411.088C674.594 412.107 673.978 413.033 673.2 413.814C672.422 414.594 671.498 415.214 670.481 415.637C669.464 416.061 668.373 416.28 667.271 416.282ZM383.028 0.294401C380.899 0.302158 378.859 1.15141 377.354 2.65699C375.848 4.16256 374.999 6.20233 374.991 8.33152V407.876C374.999 410.006 375.848 412.045 377.354 413.551C378.859 415.057 380.899 415.906 383.028 415.914H667.271C669.401 415.906 671.44 415.057 672.946 413.551C674.451 412.045 675.301 410.006 675.308 407.876V8.33152C675.301 6.20233 674.451 4.16256 672.946 2.65699C671.44 1.15141 669.401 0.302158 667.271 0.294401H383.028Z" fill="#EBEBEB"/>
<path d="M316.068 78.3846H433.917C433.917 78.3846 426.763 67.1679 414.53 72.7762C414.53 72.7762 412.234 61.0003 404.329 60.7942C402.165 60.6337 400.001 61.1045 398.099 62.1496C396.196 63.1947 394.638 64.7692 393.613 66.6822C393.613 66.6822 384.428 52.4038 370.4 55.4655C366.496 56.2201 362.924 58.1721 360.18 61.0502C357.437 63.9283 355.658 67.5895 355.091 71.525C355.091 71.525 334.145 60.7942 316.068 78.3846Z" fill="#FAFAFA"/>
<path d="M100.686 242.453H218.446C218.446 242.453 211.306 231.221 199.059 236.83C199.059 236.83 196.763 225.054 188.858 224.848C186.695 224.695 184.534 225.169 182.633 226.213C180.732 227.257 179.173 228.828 178.142 230.736C178.142 230.736 168.972 216.442 154.943 219.504C151.059 220.27 147.508 222.221 144.78 225.09C142.051 227.958 140.279 231.602 139.708 235.52C139.708 235.52 118.791 224.848 100.686 242.453Z" fill="#FAFAFA"/>
<path d="M548.395 163.113H666.228C666.228 163.113 659.089 151.896 646.842 157.505C646.842 157.505 644.56 145.729 636.641 145.523C634.479 145.365 632.318 145.837 630.419 146.882C628.519 147.927 626.964 149.5 625.94 151.411C625.94 151.411 616.754 137.132 602.726 140.194C598.822 140.949 595.25 142.901 592.507 145.779C589.763 148.657 587.984 152.318 587.417 156.254C587.417 156.254 566.5 145.523 548.395 163.113Z" fill="#FAFAFA"/>
<path d="M541.128 93.074C542.648 86.6585 538.679 80.2255 532.264 78.7054C525.848 77.1853 519.415 81.1537 517.895 87.5692C516.375 93.9847 520.343 100.418 526.759 101.938C533.174 103.458 539.607 99.4895 541.128 93.074Z" fill="#F0F0F0"/>
<path d="M89.4238 163.113H207.257C207.257 163.113 200.192 151.896 187.871 157.505C187.871 157.505 185.575 145.729 177.67 145.523C175.508 145.365 173.347 145.837 171.448 146.882C169.549 147.927 167.993 149.5 166.969 151.411C166.969 151.411 157.784 137.132 143.755 140.194C139.851 140.949 136.279 142.901 133.536 145.779C130.792 148.657 129.014 152.318 128.447 156.254C128.447 156.254 107.529 145.523 89.4238 163.113Z" fill="#FAFAFA"/>
<path d="M300.699 198.822H175.756V442.659H300.699V198.822Z" fill="#E6E6E6"/>
<path d="M277.986 198.822H175.756V442.659H277.986V198.822Z" fill="#F0F0F0"/>
<path d="M302.172 198.822H173.062V202.797H302.172V198.822Z" fill="#E0E0E0"/>
<path d="M302.172 190.859H173.062V194.834H302.172V190.859Z" fill="#E0E0E0"/>
<path d="M299.463 194.834H175.756V198.808H299.463V194.834Z" fill="#F0F0F0"/>
<path d="M204.652 213.176H185.457V232.371H204.652V213.176Z" fill="#E6E6E6"/>
<path d="M204.652 213.176H187.15V232.371H204.652V213.176Z" fill="#F5F5F5"/>
<path d="M233.738 213.176H214.543V232.371H233.738V213.176Z" fill="#E6E6E6"/>
<path d="M233.738 213.176H216.236V232.371H233.738V213.176Z" fill="#F5F5F5"/>
<path d="M262.81 213.176H243.615V232.371H262.81V213.176Z" fill="#E6E6E6"/>
<path d="M262.811 213.176H245.309V232.371H262.811V213.176Z" fill="#F5F5F5"/>
<path d="M204.652 241.453H185.457V260.648H204.652V241.453Z" fill="#E6E6E6"/>
<path d="M204.652 241.453H187.15V260.648H204.652V241.453Z" fill="#F5F5F5"/>
<path d="M233.738 241.453H214.543V260.648H233.738V241.453Z" fill="#E6E6E6"/>
<path d="M233.738 241.453H216.236V260.648H233.738V241.453Z" fill="#F5F5F5"/>
<path d="M262.81 241.453H243.615V260.648H262.81V241.453Z" fill="#E6E6E6"/>
<path d="M262.811 241.453H245.309V260.648H262.811V241.453Z" fill="#F5F5F5"/>
<path d="M204.652 293.223H185.457V312.418H204.652V293.223Z" fill="#E6E6E6"/>
<path d="M204.652 293.223H187.15V312.418H204.652V293.223Z" fill="#F5F5F5"/>
<path d="M233.738 293.223H214.543V312.418H233.738V293.223Z" fill="#E6E6E6"/>
<path d="M233.738 293.223H216.236V312.418H233.738V293.223Z" fill="#F5F5F5"/>
<path d="M262.81 293.223H243.615V312.418H262.81V293.223Z" fill="#E6E6E6"/>
<path d="M262.811 293.223H245.309V312.418H262.811V293.223Z" fill="#F5F5F5"/>
<path d="M204.652 321.5H185.457V340.695H204.652V321.5Z" fill="#E6E6E6"/>
<path d="M204.652 321.5H187.15V340.695H204.652V321.5Z" fill="#F5F5F5"/>
<path d="M233.738 321.5H214.543V340.695H233.738V321.5Z" fill="#E6E6E6"/>
<path d="M233.738 321.5H216.236V340.695H233.738V321.5Z" fill="#F5F5F5"/>
<path d="M262.81 321.5H243.615V340.695H262.81V321.5Z" fill="#E6E6E6"/>
<path d="M262.811 321.5H245.309V340.695H262.811V321.5Z" fill="#F5F5F5"/>
<path d="M204.652 379.04H185.457V398.235H204.652V379.04Z" fill="#E6E6E6"/>
<path d="M204.652 379.04H187.15V398.235H204.652V379.04Z" fill="#F5F5F5"/>
<path d="M233.738 379.04H214.543V398.235H233.738V379.04Z" fill="#E6E6E6"/>
<path d="M233.738 379.04H216.236V398.235H233.738V379.04Z" fill="#F5F5F5"/>
<path d="M262.81 379.04H243.615V398.235H262.81V379.04Z" fill="#E6E6E6"/>
<path d="M262.811 379.04H245.309V398.235H262.811V379.04Z" fill="#F5F5F5"/>
<path d="M204.652 407.317H185.457V426.512H204.652V407.317Z" fill="#E6E6E6"/>
<path d="M204.652 407.317H187.15V426.512H204.652V407.317Z" fill="#F5F5F5"/>
<path d="M233.738 407.317H214.543V426.512H233.738V407.317Z" fill="#E6E6E6"/>
<path d="M233.738 407.317H216.236V426.512H233.738V407.317Z" fill="#F5F5F5"/>
<path d="M262.81 407.317H243.615V426.512H262.81V407.317Z" fill="#E6E6E6"/>
<path d="M262.811 407.317H245.309V426.512H262.811V407.317Z" fill="#F5F5F5"/>
<path d="M300.699 274.145H175.756V275.926H300.699V274.145Z" fill="#E0E0E0"/>
<path d="M300.699 362.656H175.756V364.437H300.699V362.656Z" fill="#E0E0E0"/>
<path d="M154.663 271.834H68.2422V482.124H154.663V271.834Z" fill="#E0E0E0"/>
<path d="M130.051 271.834H68.2422V482.124H130.051V271.834Z" fill="#F0F0F0"/>
<path d="M97.607 289.115H74.5996V300.288H97.607V289.115Z" fill="#E6E6E6"/>
<path d="M97.6073 289.115H76.1309V300.288H97.6073V289.115Z" fill="#F5F5F5"/>
<path d="M124.222 289.115H101.215V300.288H124.222V289.115Z" fill="#E6E6E6"/>
<path d="M124.208 289.115H102.746V300.288H124.208V289.115Z" fill="#F5F5F5"/>
<path d="M97.607 310.135H74.5996V321.307H97.607V310.135Z" fill="#E6E6E6"/>
<path d="M97.6073 310.135H76.1309V321.307H97.6073V310.135Z" fill="#F5F5F5"/>
<path d="M124.222 310.135H101.215V321.307H124.222V310.135Z" fill="#E6E6E6"/>
<path d="M124.208 310.135H102.746V321.307H124.208V310.135Z" fill="#F5F5F5"/>
<path d="M97.607 337H74.5996V348.172H97.607V337Z" fill="#E6E6E6"/>
<path d="M97.6073 337H76.1309V348.172H97.6073V337Z" fill="#F5F5F5"/>
<path d="M124.222 337H101.215V348.172H124.222V337Z" fill="#E6E6E6"/>
<path d="M124.208 337H102.746V348.172H124.208V337Z" fill="#F5F5F5"/>
<path d="M97.607 352.426H74.5996V363.598H97.607V352.426Z" fill="#E6E6E6"/>
<path d="M97.6073 352.426H76.1309V363.598H97.6073V352.426Z" fill="#F5F5F5"/>
<path d="M124.222 352.426H101.215V363.598H124.222V352.426Z" fill="#E6E6E6"/>
<path d="M124.208 352.426H102.746V363.598H124.208V352.426Z" fill="#F5F5F5"/>
<path d="M97.607 377.789H74.5996V388.962H97.607V377.789Z" fill="#E6E6E6"/>
<path d="M97.6073 377.789H76.1309V388.962H97.6073V377.789Z" fill="#F5F5F5"/>
<path d="M124.222 377.789H101.215V388.962H124.222V377.789Z" fill="#E6E6E6"/>
<path d="M124.208 377.789H102.746V388.962H124.208V377.789Z" fill="#F5F5F5"/>
<path d="M97.607 393.216H74.5996V404.388H97.607V393.216Z" fill="#E6E6E6"/>
<path d="M97.6073 393.216H76.1309V404.388H97.6073V393.216Z" fill="#F5F5F5"/>
<path d="M124.222 393.216H101.215V404.388H124.222V393.216Z" fill="#E6E6E6"/>
<path d="M124.208 393.216H102.746V404.388H124.208V393.216Z" fill="#F5F5F5"/>
<path d="M97.607 420.815H74.5996V431.988H97.607V420.815Z" fill="#E6E6E6"/>
<path d="M97.6073 420.815H76.1309V431.988H97.6073V420.815Z" fill="#F5F5F5"/>
<path d="M124.222 420.815H101.215V431.988H124.222V420.815Z" fill="#E6E6E6"/>
<path d="M124.208 420.815H102.746V431.988H124.208V420.815Z" fill="#F5F5F5"/>
<path d="M97.607 441.188H74.5996V452.36H97.607V441.188Z" fill="#E6E6E6"/>
<path d="M97.6073 441.188H76.1309V452.36H97.6073V441.188Z" fill="#F5F5F5"/>
<path d="M124.222 441.188H101.215V452.36H124.222V441.188Z" fill="#E6E6E6"/>
<path d="M124.208 441.188H102.746V452.36H124.208V441.188Z" fill="#F5F5F5"/>
<path opacity="0.05" d="M154.663 328.182H68.2422V330.11H154.663V328.182Z" fill="black"/>
<path opacity="0.05" d="M154.663 369.723H68.2422V371.651H154.663V369.723Z" fill="black"/>
<path opacity="0.05" d="M154.663 411.63H68.2422V413.543H154.663V411.63Z" fill="black"/>
<path d="M154.648 265.607H64.1641V272.32H154.648V265.607Z" fill="#E0E0E0"/>
<path opacity="0.05" d="M154.662 265.607H133.98V272.32H154.662V265.607Z" fill="black"/>
<path d="M453.818 162.303H352.338V426.041H453.818V162.303Z" fill="#E6E6E6"/>
<path d="M416.251 162.303H314.771V426.041H416.251V162.303Z" fill="#F0F0F0"/>
<path d="M407.404 180.203H323.633V193.642H407.404V180.203Z" fill="#E6E6E6"/>
<path d="M407.39 180.203H326.871V193.642H407.39V180.203Z" fill="#F5F5F5"/>
<path d="M407.404 202.826H323.633V216.266H407.404V202.826Z" fill="#E6E6E6"/>
<path d="M407.39 202.826H326.871V216.266H407.39V202.826Z" fill="#F5F5F5"/>
<path d="M407.404 226.32H323.633V239.76H407.404V226.32Z" fill="#E6E6E6"/>
<path d="M407.39 226.32H326.871V239.76H407.39V226.32Z" fill="#F5F5F5"/>
<path d="M407.404 249.828H323.633V263.267H407.404V249.828Z" fill="#E6E6E6"/>
<path d="M407.39 249.828H326.871V263.267H407.39V249.828Z" fill="#F5F5F5"/>
<path d="M407.404 273.32H323.633V286.76H407.404V273.32Z" fill="#E6E6E6"/>
<path d="M407.39 273.32H326.871V286.76H407.39V273.32Z" fill="#F5F5F5"/>
<path d="M407.404 296.828H323.633V310.267H407.404V296.828Z" fill="#E6E6E6"/>
<path d="M407.39 296.828H326.871V310.267H407.39V296.828Z" fill="#F5F5F5"/>
<path d="M407.404 322.721H323.633V336.16H407.404V322.721Z" fill="#E6E6E6"/>
<path d="M407.39 322.721H326.871V336.16H407.39V322.721Z" fill="#F5F5F5"/>
<path d="M407.404 348.629H323.633V362.068H407.404V348.629Z" fill="#E6E6E6"/>
<path d="M407.39 348.629H326.871V362.068H407.39V348.629Z" fill="#F5F5F5"/>
<path d="M407.404 374.535H323.633V387.975H407.404V374.535Z" fill="#E6E6E6"/>
<path d="M407.39 374.535H326.871V387.975H407.39V374.535Z" fill="#F5F5F5"/>
<path d="M407.404 400.428H323.633V413.867H407.404V400.428Z" fill="#E6E6E6"/>
<path d="M407.39 400.428H326.871V413.867H407.39V400.428Z" fill="#F5F5F5"/>
<path d="M456.453 159.652H311.902V166.085H456.453V159.652Z" fill="#E0E0E0"/>
<path d="M456.453 148.039H311.902V154.472H456.453V148.039Z" fill="#E0E0E0"/>
<path d="M451.653 153.205H314.771V159.638H451.653V153.205Z" fill="#F0F0F0"/>
<path d="M453.818 180.203H425.541V193.642H453.818V180.203Z" fill="#E0E0E0"/>
<path d="M453.818 202.312H425.541V215.752H453.818V202.312Z" fill="#E0E0E0"/>
<path d="M453.818 224.436H425.541V237.875H453.818V224.436Z" fill="#E0E0E0"/>
<path d="M453.818 249.812H425.541V263.252H453.818V249.812Z" fill="#E0E0E0"/>
<path d="M453.818 273.32H425.541V286.76H453.818V273.32Z" fill="#E0E0E0"/>
<path d="M453.818 296.828H425.541V310.267H453.818V296.828Z" fill="#E0E0E0"/>
<path d="M453.818 322.721H425.541V336.16H453.818V322.721Z" fill="#E0E0E0"/>
<path d="M453.818 348.629H425.541V362.068H453.818V348.629Z" fill="#E0E0E0"/>
<path d="M453.818 374.521H425.541V387.961H453.818V374.521Z" fill="#E0E0E0"/>
<path d="M453.818 400.428H425.541V413.867H453.818V400.428Z" fill="#E0E0E0"/>
<path d="M683.507 364.6H675.367V377.332H683.507V364.6Z" fill="#E0E0E0"/>
<path d="M683.507 385.443H675.367V398.176H683.507V385.443Z" fill="#E0E0E0"/>
<path d="M683.507 405.684H675.367V418.416H683.507V405.684Z" fill="#E0E0E0"/>
<path d="M683.507 427.101H675.367V439.833H683.507V427.101Z" fill="#E0E0E0"/>
<path d="M683.507 447.93H675.367V460.663H683.507V447.93Z" fill="#E0E0E0"/>
<path d="M683.509 351.809H597.883V482.036H683.509V351.809Z" fill="#E6E6E6"/>
<path d="M669.053 351.809H597.896V482.036H669.053V351.809Z" fill="#F0F0F0"/>
<path d="M662.163 364.6H604.299V377.332H662.163V364.6Z" fill="#EBEBEB"/>
<path d="M662.163 385.443H604.299V398.176H662.163V385.443Z" fill="#EBEBEB"/>
<path d="M662.163 406.272H604.299V419.005H662.163V406.272Z" fill="#EBEBEB"/>
<path d="M662.163 427.101H604.299V439.833H662.163V427.101Z" fill="#EBEBEB"/>
<path d="M662.163 447.93H604.299V460.663H662.163V447.93Z" fill="#EBEBEB"/>
<path d="M662.15 364.6H606.42V377.332H662.15V364.6Z" fill="#F5F5F5"/>
<path d="M662.15 385.443H606.42V398.176H662.15V385.443Z" fill="#F5F5F5"/>
<path d="M662.15 406.272H606.42V419.005H662.15V406.272Z" fill="#F5F5F5"/>
<path d="M662.15 427.101H606.42V439.833H662.15V427.101Z" fill="#F5F5F5"/>
<path d="M662.15 447.93H606.42V460.663H662.15V447.93Z" fill="#F5F5F5"/>
<path d="M321.339 242.174H175.566V526.653H321.339V242.174Z" fill="#8BA00D"/>
<path opacity="0.4" d="M294.843 242.174H175.566V526.653H294.843V242.174Z" fill="white"/>
<path d="M323.061 242.174H172.432V246.811H323.061V242.174Z" fill="#8BA00D"/>
<path d="M323.061 232.887H172.432V237.538H323.061V232.887Z" fill="#8BA00D"/>
<path d="M319.896 237.537H175.566V242.174H319.896V237.537Z" fill="#F0F0F0"/>
<path d="M209.291 258.926H186.887V281.33H209.291V258.926Z" fill="#8BA00D"/>
<path opacity="0.2" d="M209.291 258.926H188.859V281.33H209.291V258.926Z" fill="white"/>
<path d="M243.22 258.926H220.816V281.33H243.22V258.926Z" fill="#8BA00D"/>
<path opacity="0.2" d="M243.218 258.926H222.787V281.33H243.218V258.926Z" fill="white"/>
<path d="M277.134 258.926H254.73V281.33H277.134V258.926Z" fill="#8BA00D"/>
<path opacity="0.2" d="M277.134 258.926H256.703V281.33H277.134V258.926Z" fill="white"/>
<path d="M209.291 291.914H186.887V314.318H209.291V291.914Z" fill="#8BA00D"/>
<path opacity="0.2" d="M209.291 291.914H188.859V314.318H209.291V291.914Z" fill="white"/>
<path d="M243.22 291.914H220.816V314.318H243.22V291.914Z" fill="#8BA00D"/>
<path opacity="0.2" d="M243.218 291.914H222.787V314.318H243.218V291.914Z" fill="white"/>
<path d="M277.134 291.914H254.73V314.318H277.134V291.914Z" fill="#8BA00D"/>
<path opacity="0.2" d="M277.134 291.914H256.703V314.318H277.134V291.914Z" fill="white"/>
<path d="M209.291 352.309H186.887V374.712H209.291V352.309Z" fill="#8BA00D"/>
<path opacity="0.2" d="M209.291 352.309H188.859V374.712H209.291V352.309Z" fill="white"/>
<path d="M243.22 352.309H220.816V374.712H243.22V352.309Z" fill="#8BA00D"/>
<path opacity="0.2" d="M243.218 352.309H222.787V374.712H243.218V352.309Z" fill="white"/>
<path d="M277.134 352.309H254.73V374.712H277.134V352.309Z" fill="#8BA00D"/>
<path opacity="0.2" d="M277.134 352.309H256.703V374.712H277.134V352.309Z" fill="white"/>
<path d="M209.291 385.297H186.887V407.701H209.291V385.297Z" fill="#8BA00D"/>
<path opacity="0.2" d="M209.291 385.297H188.859V407.701H209.291V385.297Z" fill="white"/>
<path d="M243.22 385.297H220.816V407.701H243.22V385.297Z" fill="#8BA00D"/>
<path opacity="0.2" d="M243.218 385.297H222.787V407.701H243.218V385.297Z" fill="white"/>
<path d="M277.134 385.297H254.73V407.701H277.134V385.297Z" fill="#8BA00D"/>
<path opacity="0.2" d="M277.134 385.297H256.703V407.701H277.134V385.297Z" fill="white"/>
<path d="M209.291 452.435H186.887V474.838H209.291V452.435Z" fill="#8BA00D"/>
<path opacity="0.2" d="M209.291 452.435H188.859V474.838H209.291V452.435Z" fill="white"/>
<path d="M243.22 452.435H220.816V474.838H243.22V452.435Z" fill="#8BA00D"/>
<path opacity="0.2" d="M243.218 452.435H222.787V474.838H243.218V452.435Z" fill="white"/>
<path d="M277.134 452.435H254.73V474.838H277.134V452.435Z" fill="#8BA00D"/>
<path opacity="0.2" d="M277.134 452.435H256.703V474.838H277.134V452.435Z" fill="white"/>
<path d="M209.291 485.422H186.887V507.826H209.291V485.422Z" fill="#8BA00D"/>
<path opacity="0.2" d="M209.291 485.422H188.859V507.826H209.291V485.422Z" fill="white"/>
<path d="M243.22 485.422H220.816V507.826H243.22V485.422Z" fill="#8BA00D"/>
<path opacity="0.2" d="M243.218 485.422H222.787V507.826H243.218V485.422Z" fill="white"/>
<path d="M277.134 485.422H254.73V507.826H277.134V485.422Z" fill="#8BA00D"/>
<path opacity="0.2" d="M277.134 485.422H256.703V507.826H277.134V485.422Z" fill="white"/>
<path opacity="0.2" d="M321.339 330.066H175.566V332.142H321.339V330.066Z" fill="white"/>
<path opacity="0.2" d="M321.339 433.313H175.566V435.389H321.339V433.313Z" fill="white"/>
<path d="M522.046 281.33H421.229V526.654H522.046V281.33Z" fill="#8BA00D"/>
<path opacity="0.4" d="M497.92 281.33H421.229V526.654H497.92V281.33Z" fill="white"/>
<path d="M455.497 301.48H428.662V314.508H455.497V301.48Z" fill="#8BA00D"/>
<path opacity="0.2" d="M455.497 301.48H430.443V314.508H455.497V301.48Z" fill="white"/>
<path d="M486.542 301.48H459.707V314.508H486.542V301.48Z" fill="#8BA00D"/>
<path opacity="0.2" d="M486.542 301.48H461.488V314.508H486.542V301.48Z" fill="white"/>
<path d="M455.497 326.004H428.662V339.031H455.497V326.004Z" fill="#8BA00D"/>
<path opacity="0.2" d="M455.497 326.004H430.443V339.031H455.497V326.004Z" fill="white"/>
<path d="M486.542 326.004H459.707V339.031H486.542V326.004Z" fill="#8BA00D"/>
<path opacity="0.2" d="M486.542 326.004H461.488V339.031H486.542V326.004Z" fill="white"/>
<path d="M455.497 357.344H428.662V370.371H455.497V357.344Z" fill="#8BA00D"/>
<path opacity="0.2" d="M455.497 357.344H430.443V370.371H455.497V357.344Z" fill="white"/>
<path d="M486.542 357.344H459.707V370.371H486.542V357.344Z" fill="#8BA00D"/>
<path opacity="0.2" d="M486.542 357.344H461.488V370.371H486.542V357.344Z" fill="white"/>
<path d="M455.497 375.346H428.662V388.373H455.497V375.346Z" fill="#8BA00D"/>
<path opacity="0.2" d="M455.497 375.346H430.443V388.373H455.497V375.346Z" fill="white"/>
<path d="M486.542 375.346H459.707V388.373H486.542V375.346Z" fill="#8BA00D"/>
<path opacity="0.2" d="M486.542 375.346H461.488V388.373H486.542V375.346Z" fill="white"/>
<path d="M455.497 404.934H428.662V417.961H455.497V404.934Z" fill="#8BA00D"/>
<path opacity="0.2" d="M455.497 404.934H430.443V417.961H455.497V404.934Z" fill="white"/>
<path d="M486.542 404.934H459.707V417.961H486.542V404.934Z" fill="#8BA00D"/>
<path opacity="0.2" d="M486.542 404.934H461.488V417.961H486.542V404.934Z" fill="white"/>
<path d="M455.497 422.936H428.662V435.963H455.497V422.936Z" fill="#8BA00D"/>
<path opacity="0.2" d="M455.497 422.936H430.443V435.963H455.497V422.936Z" fill="white"/>
<path d="M486.542 422.936H459.707V435.963H486.542V422.936Z" fill="#8BA00D"/>
<path opacity="0.2" d="M486.542 422.936H461.488V435.963H486.542V422.936Z" fill="white"/>
<path d="M455.497 455.129H428.662V468.156H455.497V455.129Z" fill="#8BA00D"/>
<path opacity="0.2" d="M455.497 455.129H430.443V468.156H455.497V455.129Z" fill="white"/>
<path d="M486.542 455.129H459.707V468.156H486.542V455.129Z" fill="#8BA00D"/>
<path opacity="0.2" d="M486.542 455.129H461.488V468.156H486.542V455.129Z" fill="white"/>
<path d="M455.497 478.916H428.662V491.943H455.497V478.916Z" fill="#8BA00D"/>
<path opacity="0.2" d="M455.497 478.916H430.443V491.943H455.497V478.916Z" fill="white"/>
<path d="M486.542 478.916H459.707V491.943H486.542V478.916Z" fill="#8BA00D"/>
<path opacity="0.2" d="M486.542 478.916H461.488V491.943H486.542V478.916Z" fill="white"/>
<path d="M522.06 274.072H416.488V281.903H522.06V274.072Z" fill="#8BA00D"/>
<path opacity="0.2" d="M522.06 274.072H497.934V281.903H522.06V274.072Z" fill="black"/>
<path d="M421.229 389.654H411.734V404.507H421.229V389.654Z" fill="#E0E0E0"/>
<path d="M421.229 413.957H411.734V428.81H421.229V413.957Z" fill="#E0E0E0"/>
<path d="M421.229 437.582H411.734V452.435H421.229V437.582Z" fill="#E0E0E0"/>
<path d="M421.229 462.562H411.734V477.415H421.229V462.562Z" fill="#E0E0E0"/>
<path d="M421.229 486.865H411.734V501.718H421.229V486.865Z" fill="#E0E0E0"/>
<path d="M421.228 374.729H321.338V526.654H421.228V374.729Z" fill="#8BA00D"/>
<path opacity="0.3" d="M404.359 374.713H321.338V526.653H404.359V374.713Z" fill="white"/>
<path d="M396.307 389.654H328.801V404.507H396.307V389.654Z" fill="#8BA00D"/>
<path d="M396.307 413.957H328.801V428.81H396.307V413.957Z" fill="#8BA00D"/>
<path d="M396.307 438.26H328.801V453.112H396.307V438.26Z" fill="#8BA00D"/>
<path d="M396.307 462.562H328.801V477.415H396.307V462.562Z" fill="#8BA00D"/>
<path d="M396.307 486.865H328.801V501.718H396.307V486.865Z" fill="#8BA00D"/>
<g opacity="0.1">
<path d="M396.307 389.654H331.289V404.507H396.307V389.654Z" fill="white"/>
<path d="M396.307 413.957H331.289V428.81H396.307V413.957Z" fill="white"/>
<path d="M396.307 438.26H331.289V453.112H396.307V438.26Z" fill="white"/>
<path d="M396.307 462.562H331.289V477.415H396.307V462.562Z" fill="white"/>
<path d="M396.307 486.865H331.289V501.718H396.307V486.865Z" fill="white"/>
</g>
<path d="M115.671 421.39H48.6504V526.653H155.606V421.39V374.713L115.671 421.39Z" fill="#8BA00D"/>
<path d="M175.566 374.713H155.605V526.653H175.566V374.713Z" fill="#8BA00D"/>
<path opacity="0.7" d="M175.566 374.713H155.605V526.653H175.566V374.713Z" fill="white"/>
<path opacity="0.7" d="M321.339 246.811H294.828V526.652H321.339V246.811Z" fill="white"/>
<path opacity="0.6" d="M421.228 374.713H404.359V526.653H421.228V374.713Z" fill="white"/>
<path opacity="0.7" d="M522.06 281.904H497.934V526.654H522.06V281.904Z" fill="white"/>
<path opacity="0.5" d="M536.177 239.848H532.379V255.524H536.177V239.848Z" fill="white"/>
<path opacity="0.5" d="M536.177 266.227H532.379V281.903H536.177V266.227Z" fill="white"/>
<path opacity="0.5" d="M536.177 293.65H532.379V309.327H536.177V293.65Z" fill="white"/>
<path opacity="0.5" d="M536.177 321.074H532.379V336.751H536.177V321.074Z" fill="white"/>
<path opacity="0.5" d="M536.177 348.482H532.379V364.159H536.177V348.482Z" fill="white"/>
<path opacity="0.5" d="M536.177 375.906H532.379V391.583H536.177V375.906Z" fill="white"/>
<path opacity="0.5" d="M536.177 406.126H532.379V421.803H536.177V406.126Z" fill="white"/>
<path opacity="0.5" d="M536.177 436.346H532.379V452.022H536.177V436.346Z" fill="white"/>
<path opacity="0.5" d="M536.177 466.551H532.379V482.228H536.177V466.551Z" fill="white"/>
<path opacity="0.5" d="M536.177 496.771H532.379V512.448H536.177V496.771Z" fill="white"/>
<path d="M684.274 218.961H565.881V526.653H684.274V218.961Z" fill="#8BA00D"/>
<path d="M640.438 218.961H522.045V526.653H640.438V218.961Z" fill="#8BA00D"/>
<path opacity="0.7" d="M684.275 223.377H640.453V526.653H684.275V223.377Z" fill="white"/>
<path d="M684.275 239.848H651.287V255.524H684.275V239.848Z" fill="#8BA00D"/>
<path d="M684.275 265.639H651.287V281.315H684.275V265.639Z" fill="#8BA00D"/>
<path d="M684.275 291.441H651.287V307.118H684.275V291.441Z" fill="#8BA00D"/>
<path d="M684.275 321.059H651.287V336.735H684.275V321.059Z" fill="#8BA00D"/>
<path d="M684.275 348.482H651.287V364.159H684.275V348.482Z" fill="#8BA00D"/>
<path d="M684.275 375.906H651.287V391.583H684.275V375.906Z" fill="#8BA00D"/>
<path d="M684.275 406.111H651.287V421.788H684.275V406.111Z" fill="#8BA00D"/>
<path d="M684.275 436.331H651.287V452.008H684.275V436.331Z" fill="#8BA00D"/>
<path d="M684.275 466.551H651.287V482.228H684.275V466.551Z" fill="#8BA00D"/>
<path d="M684.275 496.771H651.287V512.448H684.275V496.771Z" fill="#8BA00D"/>
<path opacity="0.3" d="M684.275 239.848H651.287V255.524H684.275V239.848Z" fill="white"/>
<path opacity="0.3" d="M684.275 265.639H651.287V281.315H684.275V265.639Z" fill="white"/>
<path opacity="0.3" d="M684.275 291.441H651.287V307.118H684.275V291.441Z" fill="white"/>
<path opacity="0.3" d="M684.275 321.059H651.287V336.735H684.275V321.059Z" fill="white"/>
<path opacity="0.3" d="M684.275 348.482H651.287V364.159H684.275V348.482Z" fill="white"/>
<path opacity="0.3" d="M684.275 375.906H651.287V391.583H684.275V375.906Z" fill="white"/>
<path opacity="0.3" d="M684.275 406.111H651.287V421.788H684.275V406.111Z" fill="white"/>
<path opacity="0.3" d="M684.275 436.331H651.287V452.008H684.275V436.331Z" fill="white"/>
<path opacity="0.3" d="M684.275 466.551H651.287V482.228H684.275V466.551Z" fill="white"/>
<path opacity="0.3" d="M684.275 496.771H651.287V512.448H684.275V496.771Z" fill="white"/>
<path opacity="0.4" d="M640.438 218.961H522.045V526.653H640.438V218.961Z" fill="white"/>
<path d="M630.12 239.848H532.379V255.524H630.12V239.848Z" fill="#8BA00D"/>
<path opacity="0.2" d="M630.121 239.848H536.178V255.524H630.121V239.848Z" fill="white"/>
<path d="M630.12 266.227H532.379V281.903H630.12V266.227Z" fill="#8BA00D"/>
<path opacity="0.2" d="M630.121 266.227H536.178V281.903H630.121V266.227Z" fill="white"/>
<path d="M630.12 293.65H532.379V309.327H630.12V293.65Z" fill="#8BA00D"/>
<path opacity="0.2" d="M630.121 293.65H536.178V309.327H630.121V293.65Z" fill="white"/>
<path d="M630.12 321.074H532.379V336.751H630.12V321.074Z" fill="#8BA00D"/>
<path opacity="0.2" d="M630.121 321.074H536.178V336.751H630.121V321.074Z" fill="white"/>
<path d="M630.12 348.482H532.379V364.159H630.12V348.482Z" fill="#8BA00D"/>
<path opacity="0.2" d="M630.121 348.482H536.178V364.159H630.121V348.482Z" fill="white"/>
<path d="M630.12 375.906H532.379V391.583H630.12V375.906Z" fill="#8BA00D"/>
<path opacity="0.2" d="M630.121 375.906H536.178V391.583H630.121V375.906Z" fill="white"/>
<path d="M630.12 406.126H532.379V421.803H630.12V406.126Z" fill="#8BA00D"/>
<path opacity="0.2" d="M630.121 406.126H536.178V421.803H630.121V406.126Z" fill="white"/>
<path d="M630.12 436.346H532.379V452.022H630.12V436.346Z" fill="#8BA00D"/>
<path opacity="0.2" d="M630.121 436.346H536.178V452.022H630.121V436.346Z" fill="white"/>
<path d="M630.12 466.551H532.379V482.228H630.12V466.551Z" fill="#8BA00D"/>
<path opacity="0.2" d="M630.121 466.551H536.178V482.228H630.121V466.551Z" fill="white"/>
<path d="M630.12 496.771H532.379V512.448H630.12V496.771Z" fill="#8BA00D"/>
<path opacity="0.2" d="M630.121 496.771H536.178V512.448H630.121V496.771Z" fill="white"/>
<path d="M681.743 209.82H640.453V215.856H681.743V209.82Z" fill="#8BA00D"/>
<path d="M681.742 208.348H522.045V215.855H681.742V208.348Z" fill="#F0F0F0"/>
<path d="M687.352 215.869H518.705V223.376H687.352V215.869Z" fill="#8BA00D"/>
<path d="M687.352 202.312H518.705V209.82H687.352V202.312Z" fill="#8BA00D"/>
<path opacity="0.05" d="M687.352 215.869H518.705V223.376H687.352V215.869Z" fill="black"/>
<path opacity="0.05" d="M687.352 202.312H518.705V209.82H687.352V202.312Z" fill="black"/>
<path opacity="0.2" d="M522.046 346.701H421.229V348.939H522.046V346.701Z" fill="white"/>
<path opacity="0.2" d="M522.046 395.174H421.229V397.411H522.046V395.174Z" fill="white"/>
<path opacity="0.2" d="M522.046 444.059H421.229V446.296H522.046V444.059Z" fill="white"/>
<path opacity="0.2" d="M323.046 242.174H294.828V246.811H323.046V242.174Z" fill="black"/>
<path opacity="0.2" d="M323.046 232.887H294.828V237.524H323.046V232.887Z" fill="black"/>
<path opacity="0.2" d="M687.351 215.869H640.453V223.376H687.351V215.869Z" fill="black"/>
<path opacity="0.2" d="M687.351 202.312H640.453V209.82H687.351V202.312Z" fill="black"/>
<path opacity="0.4" d="M115.671 421.39H48.6504V526.653H155.606V421.39V374.713L115.671 421.39Z" fill="white"/>
<path d="M74.2639 442.734H58.3516V458.647H74.2639V442.734Z" fill="#8BA00D"/>
<path d="M106.647 442.734H90.7344V458.647H106.647V442.734Z" fill="#8BA00D"/>
<path d="M139.031 442.734H123.119V458.647H139.031V442.734Z" fill="#8BA00D"/>
<path d="M74.2639 469.51H58.3516V485.422H74.2639V469.51Z" fill="#8BA00D"/>
<path d="M106.647 469.51H90.7344V485.422H106.647V469.51Z" fill="#8BA00D"/>
<path d="M139.031 469.51H123.119V485.422H139.031V469.51Z" fill="#8BA00D"/>
<path d="M74.2639 496.285H58.3516V512.197H74.2639V496.285Z" fill="#8BA00D"/>
<path d="M106.647 496.285H90.7344V512.197H106.647V496.285Z" fill="#8BA00D"/>
<path d="M139.031 496.285H123.119V512.197H139.031V496.285Z" fill="#8BA00D"/>
<path opacity="0.2" d="M76.0295 442.734H60.1172V458.647H76.0295V442.734Z" fill="white"/>
<path opacity="0.2" d="M108.399 442.734H92.4863V458.647H108.399V442.734Z" fill="white"/>
<path opacity="0.2" d="M140.783 442.734H124.871V458.647H140.783V442.734Z" fill="white"/>
<path opacity="0.2" d="M76.0295 469.51H60.1172V485.422H76.0295V469.51Z" fill="white"/>
<path opacity="0.2" d="M108.399 469.51H92.4863V485.422H108.399V469.51Z" fill="white"/>
<path opacity="0.2" d="M140.783 469.51H124.871V485.422H140.783V469.51Z" fill="white"/>
<path opacity="0.2" d="M76.0295 496.285H60.1172V512.197H76.0295V496.285Z" fill="white"/>
<path opacity="0.2" d="M108.399 496.285H92.4863V512.197H108.399V496.285Z" fill="white"/>
<path opacity="0.2" d="M140.783 496.285H124.871V512.197H140.783V496.285Z" fill="white"/>
<path d="M359.314 538.854L350.1 585.605H381.026L377.891 538.854H359.314Z" fill="#8BA00D"/>
<path d="M388.225 538.854L401.473 585.605H422.198L405.212 538.854H388.225Z" fill="#8BA00D"/>
<path d="M416.871 538.854L444.133 585.605H467.655L432.224 538.854H416.871Z" fill="#8BA00D"/>
<path d="M444.529 538.854L489.705 585.605H517.835L461.384 538.854H444.529Z" fill="#8BA00D"/>
<path d="M347.775 538.854L334.527 585.605H313.801L330.788 538.854H347.775Z" fill="#8BA00D"/>
<path d="M319.13 538.854L291.868 585.605H268.346L303.777 538.854H319.13Z" fill="#8BA00D"/>
<path d="M291.472 538.854L246.296 585.605H218.166L274.617 538.854H291.472Z" fill="#8BA00D"/>
<path opacity="0.4" d="M359.314 538.854L350.1 585.605H381.026L377.891 538.854H359.314Z" fill="white"/>
<path opacity="0.4" d="M388.225 538.854L401.473 585.605H422.198L405.212 538.854H388.225Z" fill="white"/>
<path opacity="0.4" d="M416.871 538.854L444.133 585.605H467.655L432.224 538.854H416.871Z" fill="white"/>
<path opacity="0.4" d="M444.529 538.854L489.705 585.605H517.835L461.384 538.854H444.529Z" fill="white"/>
<path opacity="0.4" d="M347.775 538.854L334.527 585.605H313.801L330.788 538.854H347.775Z" fill="white"/>
<path opacity="0.4" d="M319.13 538.854L291.868 585.605H268.346L303.777 538.854H319.13Z" fill="white"/>
<path opacity="0.4" d="M291.472 538.854L246.296 585.605H218.166L274.617 538.854H291.472Z" fill="white"/>
<path d="M148.172 521.249C153.588 521.058 158.906 519.738 163.784 517.376C168.663 515.014 172.995 511.661 176.505 507.53C180.015 503.4 182.625 498.583 184.169 493.388C185.713 488.192 186.157 482.731 185.472 477.354C184.501 469.685 181.292 462.517 179.025 455.127C174.741 441.158 173.372 425.393 163.539 414.574C160.505 411.246 156.809 408.588 152.689 406.77C148.569 404.951 144.115 404.012 139.612 404.012C135.108 404.012 130.654 404.951 126.535 406.77C122.415 408.588 118.719 411.246 115.685 414.574C109.311 421.566 106.293 431.016 104.983 440.392C103.673 449.769 103.85 459.264 103.04 468.64C102.304 476.456 100.817 484.258 101.141 492.104C101.465 499.95 103.82 508.119 109.576 513.463C112.514 515.967 115.796 518.039 119.32 519.616C122.714 521.505 126.393 522.828 130.213 523.531C132.127 523.87 134.093 523.775 135.966 523.253C137.839 522.73 139.57 521.794 141.032 520.513C143.364 521.105 145.769 521.353 148.172 521.249Z" fill="#8BA00D"/>
<path opacity="0.7" d="M148.172 521.249C153.588 521.058 158.906 519.738 163.784 517.376C168.663 515.014 172.995 511.661 176.505 507.53C180.015 503.4 182.625 498.583 184.169 493.388C185.713 488.192 186.157 482.731 185.472 477.354C184.501 469.685 181.292 462.517 179.025 455.127C174.741 441.158 173.372 425.393 163.539 414.574C160.505 411.246 156.809 408.588 152.689 406.77C148.569 404.951 144.115 404.012 139.612 404.012C135.108 404.012 130.654 404.951 126.535 406.77C122.415 408.588 118.719 411.246 115.685 414.574C109.311 421.566 106.293 431.016 104.983 440.392C103.673 449.769 103.85 459.264 103.04 468.64C102.304 476.456 100.817 484.258 101.141 492.104C101.465 499.95 103.82 508.119 109.576 513.463C112.514 515.967 115.796 518.039 119.32 519.616C122.714 521.505 126.393 522.828 130.213 523.531C132.127 523.87 134.093 523.775 135.966 523.253C137.839 522.73 139.57 521.794 141.032 520.513C143.364 521.105 145.769 521.353 148.172 521.249Z" fill="white"/>
<path d="M130.17 549.792V547.834L133.423 545.082C133.423 545.082 137.309 505.338 137.972 493.827C138.634 482.316 139.444 464.18 135.204 451.021C138.96 459.994 141.633 469.383 143.168 478.989C143.168 478.989 148.202 460.883 157.137 449.357C157.137 449.357 146.244 477.178 147.716 503.056C148.45 517.762 150.295 532.391 153.236 546.819L155.179 548.114L155.341 549.748L130.17 549.792Z" fill="#8BA00D"/>
<path d="M140.104 485.936C140.104 485.936 137.278 473.394 129.668 467.183C129.668 467.183 136.042 476.015 138.132 490.852C140.222 505.69 142.445 496.269 142.445 496.269L140.104 485.936Z" fill="#8BA00D"/>
<path d="M136.778 519.866C135.871 516.788 133.844 514.162 131.096 512.506C131.096 512.506 134.04 515.332 135.394 524.385C136.748 533.438 140.134 528.448 140.134 528.448L140.399 523.457L136.778 519.866Z" fill="#8BA00D"/>
<path opacity="0.2" d="M135.423 524.37C133.951 515.318 131.125 512.491 131.125 512.491C133.219 513.784 134.911 515.634 136.012 517.835C136.895 508.193 137.72 498.581 137.999 493.826C137.999 492.884 138.102 491.883 138.147 490.882C136.056 475.986 129.697 467.213 129.697 467.213C134.113 470.819 136.925 476.575 138.529 480.755C138.662 470.952 138.088 459.882 135.261 451.05C139.017 460.023 141.69 469.412 143.225 479.018C143.225 479.018 148.259 460.912 157.194 449.387C157.194 449.387 146.301 477.207 147.773 503.085C148.507 517.791 150.353 532.42 153.293 546.848L155.236 548.143L155.398 549.777H130.168V547.819L133.421 545.067C133.421 545.067 134.349 535.484 135.423 524.37Z" fill="black"/>
<path d="M581.764 527.55C575.648 527.33 569.646 525.839 564.139 523.171C558.632 520.503 553.741 516.717 549.779 512.054C545.817 507.391 542.869 501.953 541.125 496.088C539.381 490.222 538.879 484.058 539.65 477.987C540.754 469.332 544.375 461.236 546.936 452.963C551.779 437.184 553.325 419.387 564.423 407.184C567.846 403.425 572.016 400.422 576.666 398.367C581.316 396.312 586.344 395.251 591.427 395.251C596.511 395.251 601.539 396.312 606.189 398.367C610.839 400.422 615.009 403.425 618.431 407.184C625.629 415.059 629.044 425.746 630.531 436.315C632.018 446.884 631.782 457.615 632.768 468.257C633.593 477.089 635.271 485.921 634.918 494.753C634.564 503.585 631.885 512.83 625.394 518.88C622.055 521.717 618.327 524.061 614.324 525.842C610.491 527.976 606.334 529.468 602.018 530.258C599.856 530.642 597.635 530.535 595.52 529.943C593.405 529.352 591.45 528.293 589.801 526.843C587.17 527.469 584.463 527.707 581.764 527.55Z" fill="#8BA00D"/>
<path opacity="0.7" d="M581.764 527.55C575.648 527.33 569.646 525.839 564.139 523.171C558.632 520.503 553.741 516.717 549.779 512.054C545.817 507.391 542.869 501.953 541.125 496.088C539.381 490.222 538.879 484.058 539.65 477.987C540.754 469.332 544.375 461.236 546.936 452.963C551.779 437.184 553.325 419.387 564.423 407.184C567.846 403.425 572.016 400.422 576.666 398.367C581.316 396.312 586.344 395.251 591.427 395.251C596.511 395.251 601.539 396.312 606.189 398.367C610.839 400.422 615.009 403.425 618.431 407.184C625.629 415.059 629.044 425.746 630.531 436.315C632.018 446.884 631.782 457.615 632.768 468.257C633.593 477.089 635.271 485.921 634.918 494.753C634.564 503.585 631.885 512.83 625.394 518.88C622.055 521.717 618.327 524.061 614.324 525.842C610.491 527.976 606.334 529.468 602.018 530.258C599.856 530.642 597.635 530.535 595.52 529.943C593.405 529.352 591.45 528.293 589.801 526.843C587.17 527.469 584.463 527.707 581.764 527.55Z" fill="white"/>
<path d="M602.048 559.757V557.564L598.383 554.443C598.383 554.443 593.967 509.532 593.246 496.594C592.524 483.655 591.597 463.12 596.366 448.268C592.129 458.407 589.119 469.017 587.402 479.872C587.402 479.872 581.72 459.44 571.637 446.413C571.637 446.413 583.928 477.826 582.279 507.045C581.439 523.635 579.353 540.138 576.038 556.416L573.845 557.888L573.653 559.713L602.048 559.757Z" fill="#8BA00D"/>
<path d="M590.862 487.688C590.862 487.688 594.041 473.527 602.638 466.506C602.638 466.506 595.44 476.412 593.084 493.237C590.729 510.062 588.197 499.331 588.197 499.331L590.862 487.688Z" fill="#8BA00D"/>
<path d="M594.689 525.99C595.709 522.507 597.999 519.533 601.107 517.658C601.107 517.658 597.824 520.852 596.264 531.068C594.703 541.284 590.891 535.602 590.891 535.602L590.611 529.979L594.689 525.99Z" fill="#8BA00D"/>
<path opacity="0.2" d="M596.16 531.068C597.721 520.852 601.003 517.658 601.003 517.658C598.628 519.109 596.709 521.201 595.468 523.693C594.482 512.815 593.555 501.952 593.246 496.594C593.246 495.519 593.128 494.386 593.069 493.223C595.424 476.412 602.622 466.506 602.622 466.506C597.618 470.583 594.453 477.075 592.672 481.8C592.524 470.731 593.172 458.248 596.366 448.268C592.129 458.407 589.119 469.017 587.402 479.872C587.402 479.872 581.72 459.44 571.637 446.413C571.637 446.413 583.928 477.826 582.279 507.045C581.439 523.635 579.353 540.138 576.038 556.416L573.845 557.888L573.653 559.713H602.048V557.52L598.383 554.399C598.383 554.399 597.353 543.624 596.16 531.068Z" fill="black"/>
<path d="M286.892 607.458L275.035 610.093L279.569 622.899L289.475 620.713L286.892 607.458Z" fill="#FFB573"/>
<path opacity="0.2" d="M286.892 607.466L275.027 610.101L277.567 617.269L288.342 614.885L286.892 607.466Z" fill="black"/>
<path d="M258.903 557.815C253.92 540.703 241.496 522.848 248.348 506.553L282.609 506.457C282.609 506.457 285.369 543.684 286.223 559.508C287.113 575.965 288.909 612.367 288.909 612.367L275.389 615.311C275.389 615.311 262.296 588.109 258.903 557.815Z" fill="#263238"/>
<path opacity="0.2" d="M246.979 523.554C248.649 532.651 253.22 541.954 256.657 551.161C260.793 533.777 260.285 513.338 246.979 523.554Z" fill="black"/>
<path d="M297.696 619.566C297.696 619.566 294.538 620.986 290.674 618.741C290.441 618.639 290.188 618.59 289.933 618.597C289.679 618.605 289.429 618.669 289.202 618.786C287.215 619.61 281.909 621.627 278.479 621.2C278.404 621.188 278.326 621.195 278.254 621.22C278.183 621.245 278.118 621.287 278.066 621.343C278.014 621.399 277.977 621.467 277.958 621.541C277.939 621.615 277.938 621.692 277.956 621.766C278.445 623.577 278.777 625.426 278.95 627.294L282.093 626.624L282.497 625.513L284.153 626.197C289.345 625.399 294.441 624.067 299.359 622.223C299.815 620.213 297.696 619.566 297.696 619.566Z" fill="#C43C20"/>
<path d="M236.683 609.718L225.378 609.828L224.885 623.157L234.328 623.084L236.683 609.718Z" fill="#FFB573"/>
<path opacity="0.2" d="M236.682 609.726L225.37 609.829L225.098 617.299L235.365 617.211L236.682 609.726Z" fill="black"/>
<path d="M224.39 557.815C223.478 540.703 222.234 515.127 227.967 507.245L263.17 506.457C263.17 506.457 253.381 543.949 249.731 559.699C245.933 576.112 236.623 614.899 236.623 614.899H224.405C224.405 614.899 219.79 577.341 224.39 557.815Z" fill="#263238"/>
<path d="M277.641 450.521L278.178 451.802L278.811 453.274C279.253 454.238 279.694 455.217 280.173 456.159C281.096 458.022 282.121 459.833 283.242 461.583C283.786 462.422 284.353 463.239 284.942 463.983C285.493 464.72 286.085 465.425 286.716 466.095C287.796 467.246 289.035 468.238 290.396 469.039L287.827 468.472C289.098 468.668 290.382 468.772 291.669 468.781C293.068 468.801 294.467 468.727 295.857 468.561C297.329 468.406 298.801 468.156 300.273 467.825C301.009 467.67 301.745 467.508 302.525 467.317L303.651 467.045L304.203 466.905C304.356 466.855 304.514 466.823 304.674 466.809L307.346 467.287C308.014 467.401 308.638 467.698 309.149 468.144C309.66 468.59 310.037 469.169 310.24 469.816C310.442 470.463 310.462 471.154 310.297 471.812C310.132 472.469 309.788 473.069 309.303 473.543L308.693 474.147L308.148 474.669C307.78 475.008 307.412 475.339 307.029 475.656C306.293 476.281 305.491 476.885 304.674 477.444C303.03 478.57 301.294 479.554 299.485 480.388C297.605 481.243 295.652 481.925 293.649 482.427C291.547 482.952 289.396 483.248 287.231 483.31C286.599 483.332 285.969 483.229 285.376 483.008L284.64 482.743C283.021 482.131 281.462 481.372 279.981 480.477C278.593 479.617 277.274 478.65 276.036 477.584C274.865 476.574 273.751 475.497 272.702 474.36C271.679 473.242 270.766 472.086 269.883 470.916C269 469.746 268.205 468.553 267.462 467.339C266.718 466.125 265.99 464.91 265.364 463.659C264.739 462.408 264.113 461.157 263.568 459.869C263.296 459.221 263.024 458.573 262.773 457.911L262.398 456.888L262.214 456.365L262.008 455.725C261.349 453.706 261.495 451.511 262.416 449.598C263.337 447.685 264.961 446.201 266.95 445.456C268.938 444.712 271.137 444.764 273.088 445.602C275.039 446.44 276.591 448 277.42 449.955L277.641 450.521Z" fill="#FFB573"/>
<path d="M303.753 474.648L302.111 470.18C302.163 465.175 308.581 466.36 308.581 466.36L313.372 465.293C313.964 465.214 314.565 465.346 315.068 465.666C315.572 465.987 315.946 466.475 316.125 467.045L317.295 470.158C317.573 470.784 317.597 471.494 317.36 472.137C317.124 472.78 316.646 473.306 316.029 473.602L311.804 475.074C311.004 475.383 310.138 475.487 309.287 475.376L303.753 474.648Z" fill="#FFB573"/>
<path d="M267.778 437.487C274.837 440.431 281.026 453.23 281.026 453.23C280.703 456.321 273.593 464.954 267.322 467.17C267.322 467.17 262.435 465.138 259.359 458.463C255.428 449.822 260.293 434.366 267.778 437.487Z" fill="#C43C20"/>
<path d="M263.803 436.581C253.348 435.587 242.815 435.755 232.397 437.082C230.971 437.292 229.602 437.792 228.375 438.55C227.148 439.308 226.089 440.309 225.262 441.49C224.436 442.672 223.859 444.01 223.567 445.422C223.275 446.834 223.275 448.291 223.565 449.704C228.453 474.294 223.33 501.879 226.509 507.377C226.509 507.377 262.816 507.855 283.115 506.457C288.679 479.762 277.742 463.423 272.245 442.572C271.295 439.01 267.468 436.964 263.803 436.581Z" fill="#C43C20"/>
<path d="M235.504 456.888C234.43 458.794 233.237 460.811 232.097 462.776L228.704 468.664C228.152 469.635 227.607 470.607 227.092 471.564C226.577 472.521 226.054 473.47 225.62 474.39C225.186 475.31 224.744 476.223 224.398 476.995C224.229 477.378 224.082 477.731 223.986 477.982L223.92 478.151V478.217C223.875 478.313 223.92 478.121 223.853 478.026L223.817 477.29C223.867 478.932 224.074 480.566 224.435 482.169C224.818 484.009 225.289 485.945 225.841 487.881C226.393 489.817 226.959 491.811 227.556 493.813C228.152 495.815 228.785 497.854 229.322 499.833L229.373 500.01C229.618 500.92 229.548 501.887 229.174 502.752C228.799 503.617 228.143 504.33 227.312 504.775C226.481 505.219 225.524 505.369 224.596 505.2C223.669 505.032 222.826 504.554 222.205 503.845C220.727 502.126 219.341 500.33 218.054 498.465C217.421 497.537 216.78 496.61 216.177 495.646C215.573 494.681 214.992 493.717 214.418 492.702C213.259 490.66 212.212 488.557 211.283 486.401C210.218 483.969 209.455 481.416 209.008 478.799C208.997 478.652 208.997 478.504 209.008 478.357V478.041C208.998 477.387 209.03 476.733 209.104 476.083C209.104 475.818 209.17 475.516 209.207 475.273L209.332 474.581C209.501 473.661 209.7 472.896 209.899 472.153C210.304 470.681 210.782 469.4 211.253 468.141C211.724 466.883 212.225 465.698 212.725 464.528C213.226 463.357 213.785 462.224 214.322 461.098C215.397 458.838 216.53 456.682 217.759 454.525C218.988 452.369 220.181 450.323 221.594 448.203C222.848 446.629 224.635 445.567 226.618 445.218C228.601 444.87 230.643 445.258 232.359 446.31C234.075 447.363 235.348 449.006 235.937 450.931C236.525 452.856 236.39 454.93 235.556 456.763L235.504 456.888Z" fill="#FFB573"/>
<path d="M228.622 438.502C221.638 441.637 215.809 454.319 215.809 454.319C216.493 458.735 226.378 468.185 231.544 469.966C231.544 469.966 235.857 466.168 237.867 457.321C240.17 447.157 232.398 439.312 228.622 438.502Z" fill="#C43C20"/>
<path d="M258.858 438.399C258.173 437.069 257.057 436.011 255.693 435.396C255.18 434.074 255.141 432.615 255.583 431.267L240.127 426.336C241.378 431.488 242.335 435.492 240.451 437.979C243.49 439.834 249.069 443.131 255.171 442.999C261.272 442.866 259.844 440.541 258.858 438.399Z" fill="#FFB573"/>
<path opacity="0.2" d="M255.429 431.746L243.814 431.062C247.45 434.94 252.956 436.405 255.465 434.822C255.194 433.816 255.181 432.758 255.429 431.746Z" fill="black"/>
<path d="M255.493 442.985L252.984 440.909L249.605 442.602C249.605 442.602 251.747 444.589 255.493 442.985Z" fill="#C43C20"/>
<path opacity="0.3" d="M255.493 442.985L252.984 440.909L249.605 442.602C249.605 442.602 251.747 444.589 255.493 442.985Z" fill="black"/>
<path d="M258.724 413.404C258.923 416.525 256.914 419.196 254.235 419.366C251.556 419.535 249.23 417.158 249.031 414.015C248.832 410.872 250.842 408.223 253.521 408.053C256.2 407.884 258.526 410.283 258.724 413.404Z" fill="#263238"/>
<path d="M260.912 424.554C261.11 427.675 259.101 430.347 256.422 430.516C253.743 430.685 251.417 428.308 251.219 425.165C251.02 422.023 253.037 419.373 255.708 419.204C258.38 419.034 260.713 421.426 260.912 424.554Z" fill="#263238"/>
<path d="M237.55 417.983C238.861 424.768 239.913 429.354 244.535 431.864C253.728 436.861 258.342 432.695 259.255 425.718C260.057 419.432 257.783 409.393 250.232 407.362C242.791 405.36 236.233 411.197 237.55 417.983Z" fill="#FFB573"/>
<path d="M255.486 423.244C263.405 421.603 262.301 429.324 260.395 432.076C258.717 434.527 255.081 436.647 248.766 434.019C242.201 431.296 243.953 426.601 241.855 423.767C241.119 422.737 242.768 418.512 243.842 420.727C246.161 425.526 252.203 421.971 255.486 423.244Z" fill="#263238"/>
<path d="M240.525 423.885C244.205 426.093 244.749 422.362 243.844 420.765C245.316 419.05 246.575 413.221 242.49 412.669C244.455 413.191 250.696 412.624 249.673 408.878C252.043 411.013 259.175 412.286 258.726 408.495C258.078 402.953 249.607 398.191 243.844 402.953C236.896 399.207 228.793 406.965 232.922 410.519C227.623 411.638 228.793 419.513 231.833 420.514C229.485 424.606 238.825 429.957 240.525 423.885Z" fill="#263238"/>
<path opacity="0.2" d="M248.422 418.033C247.568 417.738 246.632 417.791 245.816 418.181C246.686 418.303 247.571 418.253 248.422 418.033Z" fill="black"/>
<path opacity="0.2" d="M248.414 418.66C248.008 418.61 247.595 418.649 247.206 418.777C246.817 418.904 246.46 419.115 246.162 419.396C246.957 419.314 247.725 419.063 248.414 418.66Z" fill="black"/>
<path opacity="0.2" d="M254.78 411.469C252.602 411.29 250.412 411.336 248.244 411.609C251.887 411.668 254.78 411.469 254.78 411.469Z" fill="black"/>
<path opacity="0.2" d="M255.729 412.146C255.729 412.146 250.732 412.293 248.369 413.183C250.842 412.992 253.3 412.645 255.729 412.146Z" fill="black"/>
<path d="M235.556 425.652C236.128 426.374 236.838 426.977 237.644 427.424C238.45 427.871 239.336 428.154 240.252 428.257C242.71 428.515 243.262 426.52 242.46 424.327C241.724 422.354 239.266 419.786 236.955 420.507C234.644 421.228 234.173 423.849 235.556 425.652Z" fill="#FFB573"/>
<path d="M250.563 418.129C250.622 418.725 250.99 419.174 251.387 419.13C251.785 419.086 252.042 418.563 251.984 417.967C251.925 417.371 251.549 416.915 251.152 416.959C250.754 417.003 250.497 417.526 250.563 418.129Z" fill="#263238"/>
<path d="M256.782 417.629C256.841 418.225 257.209 418.682 257.606 418.63C258.004 418.579 258.261 418.063 258.202 417.467C258.143 416.871 257.768 416.415 257.371 416.459C256.973 416.503 256.716 417.026 256.782 417.629Z" fill="#263238"/>
<path d="M254.779 418.247L255.515 423.267C256.113 423.302 256.712 423.239 257.289 423.083C257.404 423.045 257.506 422.977 257.585 422.886C257.664 422.795 257.717 422.684 257.737 422.565C257.758 422.446 257.745 422.324 257.701 422.211C257.657 422.099 257.584 422.001 257.488 421.927C255.979 420.816 254.779 418.247 254.779 418.247Z" fill="#ED893E"/>
<path d="M247.332 416.555C247.273 416.551 247.215 416.534 247.163 416.503C247.124 416.477 247.091 416.444 247.065 416.405C247.039 416.366 247.021 416.322 247.012 416.277C247.003 416.231 247.004 416.184 247.013 416.138C247.023 416.092 247.041 416.049 247.067 416.01C247.367 415.532 247.777 415.131 248.262 414.842C248.747 414.553 249.293 414.383 249.857 414.347C249.954 414.347 250.048 414.385 250.117 414.454C250.186 414.523 250.225 414.617 250.225 414.715C250.225 414.812 250.186 414.906 250.117 414.975C250.048 415.044 249.954 415.083 249.857 415.083C249.408 415.116 248.974 415.255 248.59 415.49C248.206 415.724 247.884 416.046 247.649 416.43C247.61 416.475 247.561 416.51 247.506 416.532C247.451 416.554 247.391 416.561 247.332 416.555Z" fill="#263238"/>
<path d="M259.055 415.885C258.998 415.889 258.941 415.879 258.888 415.856C258.836 415.833 258.789 415.797 258.754 415.752C258.484 415.399 258.135 415.114 257.735 414.921C257.335 414.728 256.894 414.632 256.45 414.641C256.404 414.646 256.357 414.642 256.313 414.628C256.269 414.615 256.227 414.593 256.192 414.563C256.156 414.534 256.127 414.498 256.105 414.456C256.084 414.415 256.071 414.37 256.067 414.324C256.061 414.231 256.09 414.139 256.149 414.067C256.207 413.994 256.291 413.947 256.384 413.934C256.948 413.909 257.511 414.02 258.023 414.259C258.536 414.497 258.983 414.855 259.328 415.303C259.385 415.378 259.411 415.472 259.4 415.565C259.389 415.659 259.342 415.744 259.269 415.804C259.207 415.851 259.133 415.879 259.055 415.885Z" fill="#263238"/>
<path d="M241.194 434.668C241.194 434.668 246.486 440.556 252.97 440.895C249.187 442.683 246.456 446.525 246.456 446.525C246.456 446.525 239.56 444.839 238.029 436.221C239.052 435.021 241.194 434.668 241.194 434.668Z" fill="#EBEBEB"/>
<path d="M255.494 442.984L258.342 440.438L261.964 441.512C261.964 441.512 259.226 444.589 255.494 442.984Z" fill="#C43C20"/>
<path opacity="0.3" d="M255.494 442.984L258.342 440.438L261.964 441.512C261.964 441.512 259.226 444.589 255.494 442.984Z" fill="black"/>
<path d="M255.693 435.396C255.693 435.396 258.218 438.34 258.343 440.438C261.346 441.601 264.121 445.413 264.121 445.413C264.121 445.413 263.385 439.378 258.63 435.948C257.728 435.474 256.705 435.282 255.693 435.396Z" fill="#EBEBEB"/>
<path d="M223.287 627.286H225.745L226.408 626.285L227.696 627.294H242.526C242.619 626.127 242.4 624.956 241.893 623.901C241.893 623.901 237.477 623.496 235.755 621.288C235.694 621.202 235.61 621.135 235.512 621.096C235.414 621.056 235.306 621.047 235.203 621.067C233.731 621.376 227.843 622.488 224.634 621.325C224.554 621.291 224.467 621.277 224.381 621.285C224.295 621.293 224.212 621.321 224.139 621.369C224.066 621.416 224.006 621.48 223.964 621.556C223.922 621.632 223.9 621.717 223.898 621.803C223.833 623.644 223.629 625.477 223.287 627.286Z" fill="#C43C20"/>
<path d="M302.59 468.325C304.319 464.645 307.992 464.549 310.818 463.6C311.297 463.438 312.15 464.483 311.606 465.219C311.311 465.699 310.922 466.115 310.463 466.443C310.004 466.77 309.484 467.002 308.934 467.125C308.897 468.399 307.528 471.836 303.922 471.755C303.075 470.812 302.601 469.592 302.59 468.325Z" fill="#FFB573"/>
<path d="M256.672 425.534C256.672 425.534 254.618 425.063 248.826 424.989C249.4 426.218 250.887 427.138 253.853 427.197C256.238 427.308 256.672 425.534 256.672 425.534Z" fill="white"/>
<path d="M227.762 498.251L223.39 500.128C219.791 503.602 225.061 507.451 225.061 507.451L226.85 510.329C227.198 510.814 227.707 511.161 228.286 511.306C228.866 511.452 229.478 511.387 230.014 511.124L233.076 509.836C233.723 509.608 234.256 509.137 234.561 508.522C234.866 507.908 234.92 507.199 234.71 506.546L233.584 503.822C233.255 503.028 232.734 502.327 232.068 501.784L227.762 498.251Z" fill="#FFB573"/>
<path d="M370.685 431.023C366.202 423.803 367.976 419.549 372.893 418.695L392.551 426.092C399.543 434.534 385.927 434.041 393.478 440.768C401.03 447.495 379.229 456.047 368.513 447.259C357.797 438.472 375.159 438.243 370.685 431.023Z" fill="#263238"/>
<path d="M400.742 621.389L406.917 620.02C406.056 614.132 405.74 607.287 405.019 603.651L397.887 604.645L400.742 621.389Z" fill="#FFB573"/>
<path d="M355.383 622.39L361.197 622.338C361.734 616.45 363.81 609.429 364.009 605.72L356.825 605.543L355.383 622.39Z" fill="#FFB573"/>
<path d="M396.54 627.284C401.456 626.247 401.088 626.247 403.826 625.562C406.174 624.981 406.807 625.15 408.699 624.708C410.281 624.333 409.898 622.832 409.037 621.183C408.662 620.447 408.154 619.63 407.617 618.541C407.545 618.388 407.424 618.265 407.273 618.191C407.121 618.118 406.949 618.098 406.785 618.136L400.308 619.512C400.18 619.539 400.061 619.6 399.964 619.688C399.867 619.776 399.795 619.888 399.756 620.013C399.342 621.094 398.688 622.067 397.844 622.859C397 623.652 395.989 624.244 394.884 624.591C392.323 625.511 394.582 627.704 396.54 627.284Z" fill="#263238"/>
<path d="M347.787 627.285C351.379 627.285 353.756 626.961 356.545 626.865C358.937 626.784 359.261 627.285 361.697 627.285C363.295 627.285 363.744 625.489 363.339 624.135C362.946 623.107 362.611 622.058 362.338 620.992C362.307 620.839 362.222 620.702 362.1 620.605C361.977 620.508 361.824 620.457 361.668 620.462H354.985C354.859 620.466 354.736 620.498 354.624 620.555C354.512 620.613 354.414 620.694 354.337 620.793C353.517 621.905 352.453 622.815 351.227 623.453C350.001 624.09 348.646 624.44 347.264 624.473C344.541 624.687 345.815 627.285 347.787 627.285Z" fill="#263238"/>
<path d="M360.071 492.634C360.071 492.634 357.421 528.175 358.474 550.778C357.348 571.967 355.729 614.736 355.729 614.736C355.846 615.818 361.55 615.391 362.544 614.736C362.544 614.736 374.835 585.149 371.722 550.778C385.227 514.927 383.719 492.634 383.719 492.634H360.071Z" fill="#C43C20"/>
<path opacity="0.2" d="M373.467 506.897C375.572 507.243 381.217 511.255 381.953 513.786C380.471 522.377 378.396 530.854 375.741 539.156C372.34 529.706 371.781 516.068 373.467 506.897Z" fill="black"/>
<path d="M367.166 492.634C367.166 492.634 376.94 532.753 381.628 552.449C386.545 573.137 396.628 600.362 398.696 613.971C399.984 614.398 404.047 613.581 406.159 612.388C406.159 612.388 407.94 573.285 396.054 553.368C398.74 504.358 387.222 492.634 387.222 492.634H367.166Z" fill="#C43C20"/>
<path d="M397.533 611.292C397.709 612.222 397.82 613.164 397.864 614.111C397.865 614.19 397.882 614.269 397.914 614.342C397.947 614.414 397.994 614.48 398.052 614.533C398.111 614.587 398.18 614.628 398.255 614.654C398.331 614.68 398.41 614.691 398.49 614.685C401.316 614.545 405.114 613.065 406.343 612.572C406.455 612.528 406.55 612.449 406.615 612.347C406.679 612.246 406.711 612.126 406.704 612.006L406.564 609.334C406.559 609.247 406.534 609.162 406.493 609.085C406.451 609.008 406.393 608.941 406.323 608.889C406.253 608.837 406.172 608.802 406.087 608.784C406.001 608.767 405.913 608.769 405.828 608.789L397.967 610.622C397.823 610.657 397.698 610.746 397.617 610.871C397.536 610.995 397.506 611.146 397.533 611.292Z" fill="#263238"/>
<path opacity="0.1" d="M397.533 611.292C397.709 612.222 397.82 613.164 397.864 614.111C397.865 614.19 397.882 614.269 397.914 614.342C397.947 614.414 397.994 614.48 398.052 614.533C398.111 614.587 398.18 614.628 398.255 614.654C398.331 614.68 398.41 614.691 398.49 614.685C401.316 614.545 405.114 613.065 406.343 612.572C406.455 612.528 406.55 612.449 406.615 612.347C406.679 612.246 406.711 612.126 406.704 612.006L406.564 609.334C406.559 609.247 406.534 609.162 406.493 609.085C406.451 609.008 406.393 608.941 406.323 608.889C406.253 608.837 406.172 608.802 406.087 608.784C406.001 608.767 405.913 608.769 405.828 608.789L397.967 610.622C397.823 610.657 397.698 610.746 397.617 610.871C397.536 610.995 397.506 611.146 397.533 611.292Z" fill="white"/>
<path d="M355.088 611.718C355.037 612.454 354.926 613.772 354.816 614.736C354.799 614.889 354.843 615.042 354.938 615.163C355.033 615.284 355.171 615.363 355.324 615.384C357.839 615.605 360.37 615.59 362.883 615.339C363.004 615.328 363.12 615.278 363.212 615.197C363.304 615.117 363.369 615.01 363.398 614.891L364.023 612.256C364.045 612.171 364.048 612.082 364.031 611.996C364.015 611.91 363.979 611.828 363.927 611.758C363.874 611.687 363.807 611.629 363.73 611.588C363.652 611.547 363.566 611.523 363.479 611.52L355.736 611.211C355.583 611.194 355.43 611.238 355.309 611.332C355.188 611.427 355.109 611.566 355.088 611.718Z" fill="#263238"/>
<path opacity="0.1" d="M355.088 611.718C355.037 612.454 354.926 613.772 354.816 614.736C354.799 614.889 354.843 615.042 354.938 615.163C355.033 615.284 355.171 615.363 355.324 615.384C357.839 615.605 360.37 615.59 362.883 615.339C363.004 615.328 363.12 615.278 363.212 615.197C363.304 615.117 363.369 615.01 363.398 614.891L364.023 612.256C364.045 612.171 364.048 612.082 364.031 611.996C364.015 611.91 363.979 611.828 363.927 611.758C363.874 611.687 363.807 611.629 363.73 611.588C363.652 611.547 363.566 611.523 363.479 611.52L355.736 611.211C355.583 611.194 355.43 611.238 355.309 611.332C355.188 611.427 355.109 611.566 355.088 611.718Z" fill="white"/>
<path d="M368.034 460.963L367.548 461.773L367.092 462.509C366.79 462.98 366.473 463.421 366.164 463.863C365.539 464.753 364.869 465.6 364.192 466.431C362.824 468.094 361.349 469.665 359.776 471.135C359.04 471.871 358.179 472.607 357.369 473.291C356.56 473.976 355.691 474.653 354.801 475.271C353.041 476.552 351.191 477.706 349.266 478.723L349.001 478.863C348.327 479.232 347.555 479.381 346.793 479.289C345.63 479.149 344.492 478.855 343.407 478.414C342.395 477.995 341.432 477.464 340.537 476.831C339.704 476.248 338.93 475.585 338.226 474.851C337.552 474.162 336.929 473.424 336.364 472.643C335.3 471.189 334.388 469.631 333.641 467.992C333.273 467.197 332.949 466.387 332.654 465.578C332.365 464.74 332.119 463.887 331.918 463.024C331.786 462.483 331.846 461.913 332.089 461.411C332.332 460.91 332.742 460.51 333.249 460.278C333.756 460.047 334.327 460 334.865 460.145C335.403 460.291 335.873 460.619 336.194 461.073L336.334 461.272C336.702 461.809 337.159 462.464 337.585 463.053C338.012 463.642 338.476 464.231 338.932 464.798C339.812 465.895 340.777 466.921 341.817 467.867C342.71 468.711 343.722 469.42 344.82 469.972C345.65 470.396 346.568 470.618 347.499 470.619L344.997 471.186C346.471 470.201 347.891 469.137 349.251 467.999C350.623 466.846 351.931 465.617 353.167 464.319C354.41 463.024 355.617 461.677 356.736 460.271C357.303 459.535 357.833 458.858 358.37 458.144L359.106 457.07L359.467 456.547L359.769 456.098L359.96 455.811C360.643 454.737 361.725 453.979 362.967 453.703C364.209 453.427 365.51 453.656 366.584 454.339C367.657 455.022 368.416 456.104 368.692 457.346C368.968 458.588 368.739 459.889 368.056 460.963H368.034Z" fill="#FFB573"/>
<path d="M366.857 451.336C361.764 451.196 356.826 455.943 353.705 461.309C354.441 464.739 362.147 470.406 362.147 470.406C362.147 470.406 373.562 459.395 366.857 451.336Z" fill="#263238"/>
<path d="M358.533 460.691C358.383 464.83 358.444 468.974 358.717 473.107C358.923 478.494 359.291 483.794 360.071 492.633H387.207C386.655 484.993 387.546 476.279 392.418 459.086C392.706 458.187 392.789 457.235 392.661 456.299C392.533 455.364 392.198 454.469 391.679 453.68C391.16 452.891 390.472 452.228 389.664 451.74C388.856 451.251 387.948 450.95 387.009 450.858C385.934 450.747 384.801 450.659 383.623 450.6C379.521 450.309 375.404 450.309 371.303 450.6C369.963 450.725 368.579 450.895 367.247 451.079C364.906 451.424 362.758 452.57 361.168 454.324C359.579 456.077 358.647 458.327 358.533 460.691Z" fill="#263238"/>
<path d="M382.755 436.727C381.68 440.694 380.363 447.958 382.939 450.6C382.939 450.6 379.185 450.041 371.214 454.972C368.903 451.66 370.618 450.6 370.618 450.6C375.115 449.548 375.247 446.265 374.71 443.189L382.755 436.727Z" fill="#FFB573"/>
<path d="M372.9 453.979C375.521 454.347 376.345 458.314 376.345 458.314C376.345 458.314 382.652 453.854 384.647 450.711C383.854 450.26 383.086 449.769 382.343 449.239C382.343 449.239 374.431 452.463 372.9 453.979Z" fill="white"/>
<path d="M370.396 453.551C370.396 453.551 368.129 454.162 367.313 457.357C366.709 451.572 369.41 450.593 369.41 450.593C370.131 450.19 370.974 450.067 371.78 450.247C371.202 450.552 370.748 451.048 370.496 451.651C370.243 452.254 370.208 452.926 370.396 453.551Z" fill="white"/>
<path opacity="0.2" d="M379.479 439.361L374.717 443.181C374.856 443.909 374.93 444.648 374.938 445.389C376.645 445.139 379.103 443.284 379.412 441.518C379.565 440.809 379.587 440.078 379.479 439.361Z" fill="black"/>
<path d="M386.148 428.778C384.941 435.174 384.566 437.904 380.915 440.973C375.424 445.588 367.873 443.145 367.152 436.624C366.504 430.736 368.58 421.271 375.174 419.151C376.576 418.651 378.086 418.534 379.548 418.813C381.011 419.092 382.372 419.757 383.491 420.739C384.61 421.721 385.446 422.983 385.913 424.397C386.38 425.81 386.461 427.323 386.148 428.778Z" fill="#FFB573"/>
<path d="M386.309 432.134C382.46 433.658 379.943 427.527 381.084 423.302C374.401 426.415 363.42 421.896 365.091 417.458C367.564 419.32 369.043 418.71 369.043 418.71C369.043 418.71 389.739 405.462 388.135 417.171C399.683 421.771 393.191 429.919 386.309 432.134Z" fill="#263238"/>
<path d="M371.604 413.462C370.515 414.198 371.251 417.061 376.91 414.478L379.023 413.948C374.379 417.989 370.147 420.653 367.909 418.99C365.672 417.326 367.504 412.719 371.604 413.462Z" fill="#263238"/>
<path d="M376.006 429.867C375.925 430.412 375.586 430.831 375.27 430.802C374.953 430.773 374.703 430.316 374.777 429.779C374.85 429.242 375.203 428.815 375.549 428.844C375.895 428.874 376.087 429.301 376.006 429.867Z" fill="#263238"/>
<path d="M369.507 429.455C369.426 430 369.081 430.412 368.735 430.39C368.389 430.368 368.175 429.904 368.249 429.36C368.322 428.815 368.668 428.403 369.022 428.432C369.375 428.462 369.544 428.911 369.507 429.455Z" fill="#263238"/>
<path d="M369.132 428.469L367.91 427.998C367.91 427.998 368.418 429.065 369.132 428.469Z" fill="#263238"/>
<path d="M371.163 430.213C370.512 431.422 369.708 432.542 368.771 433.547C369.02 433.765 369.314 433.924 369.633 434.011C369.952 434.098 370.287 434.11 370.611 434.047L371.163 430.213Z" fill="#ED847E"/>
<path d="M373.379 436.491C373.078 436.517 372.775 436.517 372.474 436.491C372.453 436.49 372.433 436.485 372.415 436.476C372.396 436.467 372.38 436.453 372.368 436.437C372.355 436.421 372.346 436.402 372.341 436.382C372.337 436.362 372.337 436.342 372.341 436.322C372.347 436.279 372.368 436.241 372.401 436.213C372.433 436.186 372.475 436.172 372.518 436.174C373.199 436.226 373.883 436.125 374.519 435.878C375.156 435.63 375.73 435.244 376.198 434.747C376.228 434.719 376.267 434.703 376.308 434.703C376.349 434.703 376.389 434.719 376.418 434.747C376.446 434.777 376.462 434.816 376.462 434.857C376.462 434.898 376.446 434.937 376.418 434.967C375.629 435.834 374.546 436.376 373.379 436.491Z" fill="#263238"/>
<path d="M387.451 433.547C387.176 434.107 386.787 434.602 386.307 435C385.828 435.399 385.269 435.691 384.669 435.858C383.197 436.219 382.571 434.496 383.108 432.804C383.594 431.28 384.956 429.256 386.398 429.661C387.841 430.066 388.238 432.075 387.451 433.547Z" fill="#FFB573"/>
<path d="M377.889 426.084C377.843 426.087 377.796 426.081 377.752 426.066C377.707 426.05 377.667 426.027 377.632 425.996C377.313 425.696 376.932 425.47 376.516 425.332C376.1 425.195 375.66 425.15 375.225 425.201C375.182 425.212 375.136 425.214 375.092 425.207C375.048 425.201 375.005 425.185 374.967 425.162C374.928 425.139 374.895 425.108 374.869 425.072C374.842 425.035 374.823 424.994 374.813 424.95C374.809 424.858 374.84 424.768 374.9 424.698C374.96 424.629 375.045 424.584 375.137 424.575C375.687 424.503 376.247 424.553 376.776 424.72C377.305 424.888 377.79 425.17 378.198 425.547C378.228 425.578 378.251 425.615 378.264 425.656C378.278 425.697 378.283 425.74 378.278 425.783C378.273 425.826 378.259 425.867 378.236 425.904C378.213 425.941 378.183 425.972 378.147 425.996C378.074 426.054 377.983 426.085 377.889 426.084Z" fill="#263238"/>
<path d="M384.786 506.905C390.726 503.556 396.393 498.205 401.906 491.714C395.605 482.83 389.224 474.948 382.615 469.965C376.845 476.007 371.126 481.226 365.488 485.149C371.862 490.492 378.339 498.411 384.786 506.905Z" fill="white"/>
<path d="M367.894 426.084C367.856 426.092 367.816 426.091 367.778 426.082C367.74 426.073 367.704 426.056 367.673 426.032C367.609 425.978 367.568 425.901 367.56 425.817C367.552 425.733 367.577 425.649 367.629 425.583C367.93 425.167 368.323 424.825 368.778 424.583C369.232 424.342 369.735 424.209 370.249 424.192C370.291 424.194 370.331 424.204 370.368 424.223C370.406 424.241 370.438 424.267 370.465 424.299C370.491 424.331 370.511 424.368 370.522 424.408C370.533 424.448 370.535 424.49 370.529 424.531C370.518 424.615 370.477 424.692 370.413 424.747C370.35 424.803 370.268 424.833 370.183 424.833C369.775 424.85 369.377 424.96 369.018 425.156C368.66 425.351 368.351 425.626 368.115 425.959C368.09 425.995 368.057 426.025 368.019 426.046C367.98 426.068 367.938 426.081 367.894 426.084Z" fill="#263238"/>
<path d="M388.145 506.988L403.606 493.13C404.127 492.663 404.171 491.863 403.704 491.342L385.248 470.751C384.781 470.231 383.981 470.187 383.46 470.654L367.999 484.512C367.479 484.978 367.435 485.779 367.902 486.299L386.357 506.89C386.824 507.411 387.624 507.455 388.145 506.988Z" fill="#C43C20"/>
<path opacity="0.4" d="M388.145 506.988L403.606 493.13C404.127 492.663 404.171 491.863 403.704 491.342L385.248 470.751C384.781 470.231 383.981 470.187 383.46 470.654L367.999 484.512C367.479 484.978 367.435 485.779 367.902 486.299L386.357 506.89C386.824 507.411 387.624 507.455 388.145 506.988Z" fill="white"/>
<path d="M375.667 428.851L374.445 428.388C374.445 428.388 374.953 429.448 375.667 428.851Z" fill="#263238"/>
<path d="M376.609 497.462L377.183 495.519C377.288 495.162 377.476 494.835 377.732 494.565C377.988 494.295 378.305 494.09 378.655 493.966L382.019 492.81C382.682 492.584 383.39 492.518 384.084 492.619C384.777 492.721 385.437 492.985 386.008 493.392L386.744 493.907C386.008 497.19 382.792 500.2 382.792 500.2L381.975 501.157C381.812 501.358 381.61 501.525 381.382 501.648C381.154 501.771 380.904 501.848 380.646 501.874C380.388 501.9 380.127 501.875 379.879 501.8C379.631 501.725 379.4 501.601 379.2 501.436L377.279 499.832C376.95 499.544 376.712 499.167 376.593 498.746C376.474 498.326 376.48 497.879 376.609 497.462Z" fill="#FFB573"/>
<path d="M330.75 456.068L332.744 456.378C333.115 456.435 333.467 456.581 333.771 456.802C334.074 457.024 334.32 457.315 334.489 457.651L336.078 460.838C336.393 461.464 336.552 462.156 336.544 462.857C336.535 463.558 336.357 464.246 336.027 464.864L335.615 465.644C332.266 465.349 328.858 462.56 328.858 462.56L327.798 461.875C327.577 461.74 327.385 461.562 327.233 461.352C327.081 461.142 326.971 460.904 326.911 460.652C326.851 460.4 326.841 460.138 326.882 459.882C326.923 459.626 327.015 459.38 327.151 459.16L328.483 457.047C328.726 456.683 329.07 456.397 329.472 456.223C329.874 456.05 330.318 455.996 330.75 456.068Z" fill="#FFB573"/>
<path d="M325.221 467.72C325.193 467.719 325.165 467.712 325.139 467.7C325.114 467.687 325.092 467.669 325.074 467.646C324.756 467.157 324.628 466.568 324.714 465.99C324.78 465.701 324.904 465.428 325.079 465.188C325.253 464.947 325.475 464.745 325.729 464.592C325.748 464.58 325.769 464.571 325.791 464.567C325.813 464.563 325.836 464.564 325.858 464.568C325.88 464.573 325.9 464.582 325.919 464.595C325.937 464.608 325.953 464.624 325.965 464.643C325.977 464.662 325.986 464.682 325.991 464.704C325.995 464.726 325.996 464.748 325.992 464.77C325.987 464.792 325.979 464.813 325.967 464.832C325.955 464.85 325.939 464.866 325.921 464.879C325.705 465.006 325.516 465.174 325.367 465.376C325.218 465.577 325.111 465.806 325.052 466.049C324.984 466.537 325.094 467.034 325.361 467.448C325.378 467.474 325.388 467.504 325.389 467.535C325.391 467.566 325.384 467.597 325.37 467.624C325.356 467.652 325.335 467.675 325.309 467.692C325.282 467.709 325.252 467.718 325.221 467.72Z" fill="#E0E0E0"/>
<path d="M329.027 458.571L331.721 461.515C331.804 461.599 331.851 461.713 331.851 461.832C331.851 461.95 331.804 462.064 331.721 462.148L328.1 465.453C328.046 465.502 327.981 465.536 327.91 465.554C327.84 465.572 327.766 465.573 327.695 465.556L325.347 464.989C325.26 464.968 325.182 464.92 325.123 464.853C325.064 464.786 325.027 464.703 325.016 464.614L324.611 462.251C324.602 462.179 324.61 462.105 324.634 462.036C324.658 461.967 324.698 461.905 324.751 461.854L328.372 458.557C328.415 458.513 328.467 458.478 328.523 458.455C328.58 458.432 328.641 458.421 328.703 458.422C328.764 458.423 328.825 458.437 328.88 458.463C328.936 458.489 328.986 458.526 329.027 458.571ZM325.487 464.518C325.538 464.574 325.6 464.619 325.668 464.65C325.737 464.682 325.811 464.7 325.887 464.703C325.962 464.706 326.038 464.694 326.109 464.668C326.18 464.642 326.245 464.603 326.3 464.551C326.356 464.5 326.401 464.438 326.432 464.37C326.464 464.301 326.482 464.227 326.485 464.152C326.488 464.076 326.476 464.001 326.45 463.93C326.424 463.859 326.385 463.794 326.333 463.738C326.281 463.684 326.218 463.641 326.148 463.612C326.079 463.583 326.004 463.568 325.929 463.568C325.853 463.568 325.779 463.583 325.709 463.612C325.64 463.641 325.577 463.684 325.524 463.738C325.466 463.786 325.418 463.846 325.383 463.912C325.347 463.979 325.326 464.052 325.319 464.128C325.312 464.203 325.32 464.279 325.343 464.351C325.365 464.423 325.402 464.49 325.45 464.548L325.487 464.518Z" fill="#263238"/>
<path d="M325.288 467.226C325.669 467.306 326.01 467.517 326.251 467.823C326.492 468.129 326.618 468.511 326.605 468.9C326.593 469.289 326.444 469.662 326.184 469.952C325.924 470.242 325.57 470.432 325.185 470.487L324.353 474.351L323.978 474.594L323.691 474.145V473.35L323.897 472.732L323.816 472.327L323.934 471.775V471.252V470.906L324.022 470.244C323.734 470.065 323.509 469.801 323.377 469.489C323.245 469.176 323.214 468.831 323.286 468.5C323.332 468.284 323.421 468.079 323.547 467.898C323.673 467.716 323.834 467.562 324.02 467.443C324.206 467.325 324.414 467.245 324.632 467.207C324.85 467.17 325.073 467.177 325.288 467.226ZM324.979 468.698C325.122 468.718 325.268 468.683 325.386 468.6C325.505 468.517 325.588 468.393 325.618 468.252C325.649 468.11 325.625 467.963 325.552 467.838C325.478 467.713 325.36 467.621 325.222 467.58C325.072 467.549 324.917 467.578 324.789 467.661C324.661 467.743 324.571 467.873 324.537 468.021C324.517 468.164 324.551 468.309 324.633 468.428C324.715 468.546 324.838 468.63 324.979 468.662V468.698Z" fill="#C43C20"/>
<path d="M325.223 467.72C325.192 467.721 325.162 467.713 325.136 467.697C325.11 467.681 325.089 467.659 325.075 467.632C325.062 467.613 325.054 467.591 325.049 467.569C325.045 467.546 325.046 467.523 325.052 467.501C325.057 467.479 325.068 467.458 325.082 467.44C325.096 467.422 325.114 467.407 325.134 467.396C325.543 467.127 325.845 466.724 325.988 466.255C326.035 466.009 326.031 465.756 325.978 465.51C325.925 465.265 325.823 465.033 325.679 464.828C325.667 464.808 325.659 464.787 325.656 464.765C325.652 464.742 325.653 464.719 325.659 464.697C325.664 464.676 325.674 464.655 325.688 464.637C325.701 464.619 325.718 464.603 325.738 464.592C325.776 464.569 325.822 464.562 325.866 464.571C325.909 464.581 325.948 464.607 325.973 464.644C326.142 464.888 326.259 465.164 326.319 465.455C326.378 465.746 326.378 466.046 326.319 466.336C326.163 466.897 325.803 467.38 325.311 467.691C325.286 467.71 325.255 467.721 325.223 467.72Z" fill="#E0E0E0"/>
<path d="M395.031 457.835C395.274 458.365 395.436 458.74 395.62 459.182C395.804 459.623 395.959 460.028 396.121 460.448C396.444 461.294 396.724 462.148 396.996 462.994C397.532 464.707 397.979 466.446 398.336 468.205C398.704 469.981 398.965 471.778 399.116 473.585C399.277 475.421 399.317 477.265 399.234 479.105V479.422C399.224 479.623 399.195 479.823 399.146 480.018C398.855 481.115 398.422 482.169 397.858 483.153C397.392 483.964 396.881 484.748 396.327 485.501C395.307 486.878 394.199 488.186 393.007 489.417C391.844 490.609 390.652 491.735 389.423 492.81C388.194 493.884 386.943 494.893 385.574 495.864C385.111 496.186 384.551 496.336 383.989 496.287C383.428 496.239 382.901 495.996 382.5 495.6C382.098 495.205 381.849 494.681 381.793 494.12C381.737 493.559 381.88 492.997 382.196 492.53V492.478L384.808 488.695C385.669 487.429 386.523 486.178 387.318 484.92C388.113 483.661 388.871 482.403 389.526 481.203C389.826 480.64 390.094 480.06 390.328 479.466C390.498 479.059 390.612 478.63 390.667 478.193L390.571 479.105C390.446 477.633 390.292 476.198 390.027 474.726C389.762 473.254 389.452 471.782 389.07 470.31C388.687 468.838 388.26 467.366 387.782 465.938C387.546 465.202 387.289 464.466 387.046 463.789L386.656 462.737L386.295 461.787L386.199 461.537C385.788 460.382 385.835 459.114 386.329 457.992C386.824 456.87 387.729 455.98 388.859 455.505C389.989 455.029 391.258 455.004 392.406 455.435C393.553 455.865 394.493 456.719 395.031 457.82V457.835Z" fill="#FFB573"/>
<path d="M387.26 450.895C391.676 451.572 393.449 452.919 397.056 461.795C395.422 465.107 387.753 468.271 387.753 468.271C387.753 468.271 381.629 458.703 387.26 450.895Z" fill="#263238"/>
</svg>
