<svg width="16" height="16" viewBox="0 0 16 16" fill="none" xmlns="http://www.w3.org/2000/svg">
<g clip-path="url(#clip0_1770_3132)">
<rect width="14.9189" height="14.9189" transform="translate(0.296875 0.541016)" fill="white"/>
<path d="M13.3509 0.540039H2.16174C1.13344 0.540039 0.296875 1.37661 0.296875 2.4049V7.06707C0.296875 8.09536 1.13344 8.93193 2.16174 8.93193H13.3509C14.3792 8.93193 15.2158 8.09536 15.2158 7.06707V2.4049C15.2158 1.37661 14.3792 0.540039 13.3509 0.540039ZM3.32728 7.9995V7.06707H12.1854V7.9995H3.32728ZM14.2834 7.06707C14.2834 7.58121 13.8651 7.9995 13.3509 7.9995H13.1178V6.60085C13.1178 6.34338 12.9091 6.13463 12.6516 6.13463H2.86106C2.60357 6.13463 2.39485 6.34338 2.39485 6.60085V7.9995H2.16174C1.64759 7.9995 1.22931 7.58121 1.22931 7.06707V5.2022H13.3509C13.6084 5.2022 13.8171 4.99345 13.8171 4.73598C13.8171 4.47852 13.6084 4.26977 13.3509 4.26977H1.22931V2.4049C1.22931 1.89075 1.64759 1.47247 2.16174 1.47247H13.3509C13.8651 1.47247 14.2834 1.89075 14.2834 2.4049V7.06707Z" fill="#8BA00D"/>
<path d="M4.02502 9.39844C3.76752 9.39844 3.5588 9.60719 3.5588 9.86465V12.662C3.5588 13.1761 3.14052 13.5944 2.62637 13.5944C2.36888 13.5944 2.16016 13.8031 2.16016 14.0606C2.16016 14.3181 2.36888 14.5268 2.62637 14.5268C3.65467 14.5268 4.49124 13.6902 4.49124 12.662V9.86465C4.49124 9.60719 4.28252 9.39844 4.02502 9.39844Z" fill="#8BA00D"/>
<path d="M13.1188 14.5267C12.6046 14.5267 12.1863 14.1084 12.1863 13.5943V10.5639C12.1863 10.3064 11.9776 10.0977 11.7201 10.0977C11.4626 10.0977 11.2539 10.3064 11.2539 10.5639V13.5943C11.2539 14.6226 12.0905 15.4591 13.1188 15.4591C13.3763 15.4591 13.585 15.2504 13.585 14.9929C13.585 14.7355 13.3763 14.5267 13.1188 14.5267Z" fill="#8BA00D"/>
<path d="M9.15393 14.5263C8.63978 14.5263 8.22149 14.108 8.22149 13.5939V11.0297C8.22149 10.7722 8.01278 10.5635 7.75528 10.5635C7.49778 10.5635 7.28906 10.7722 7.28906 11.0297V13.5939C7.28906 14.6222 8.12563 15.4587 9.15393 15.4587C9.41142 15.4587 9.62014 15.25 9.62014 14.9925C9.62014 14.7351 9.41142 14.5263 9.15393 14.5263Z" fill="#8BA00D"/>
<path d="M5.892 10.0977C5.6345 10.0977 5.42578 10.3064 5.42578 10.5639V14.0605C5.42578 14.318 5.6345 14.5267 5.892 14.5267C6.14949 14.5267 6.35821 14.318 6.35821 14.0605V10.5639C6.35821 10.3064 6.14949 10.0977 5.892 10.0977Z" fill="#8BA00D"/>
<path d="M9.62247 9.39844C9.36497 9.39844 9.15625 9.60719 9.15625 9.86465V12.4288C9.15625 12.6863 9.36497 12.8951 9.62247 12.8951C9.87996 12.8951 10.0887 12.6863 10.0887 12.4288V9.86465C10.0887 9.60719 9.87996 9.39844 9.62247 9.39844Z" fill="#8BA00D"/>
<path d="M12.8842 3.10431C13.1417 3.10431 13.3504 2.89558 13.3504 2.63809C13.3504 2.38061 13.1417 2.17188 12.8842 2.17188C12.6267 2.17188 12.418 2.38061 12.418 2.63809C12.418 2.89558 12.6267 3.10431 12.8842 3.10431Z" fill="#8BA00D"/>
<path d="M11.0209 3.10431C11.2784 3.10431 11.4871 2.89558 11.4871 2.63809C11.4871 2.38061 11.2784 2.17188 11.0209 2.17188C10.7634 2.17188 10.5547 2.38061 10.5547 2.63809C10.5547 2.89558 10.7634 3.10431 11.0209 3.10431Z" fill="#8BA00D"/>
</g>
<defs>
<clipPath id="clip0_1770_3132">
<rect width="14.9189" height="14.9189" fill="white" transform="translate(0.296875 0.541016)"/>
</clipPath>
</defs>
</svg>
