<svg width="33" height="32" viewBox="0 0 33 32" fill="none" xmlns="http://www.w3.org/2000/svg">
<circle cx="16.5" cy="16" r="16" fill="#F9ECE9"/>
<path d="M23.5375 22.1668H22.8086V14.6535C22.8086 14.2401 22.6044 13.8535 22.2472 13.6001L21.3506 12.9601L21.336 11.3268C21.336 10.9601 21.008 10.6668 20.6071 10.6668H18.1213L17.1444 9.97348C16.6196 9.59348 15.876 9.59348 15.3512 9.97348L10.2484 13.6001C9.89119 13.8535 9.68708 14.2401 9.68708 14.6468L9.65063 22.1668H8.95811C8.65923 22.1668 8.41138 22.3935 8.41138 22.6668C8.41138 22.9401 8.65923 23.1668 8.95811 23.1668H23.5375C23.8364 23.1668 24.0843 22.9401 24.0843 22.6668C24.0843 22.3935 23.8364 22.1668 23.5375 22.1668ZM12.2385 16.5001V15.5001C12.2385 15.1335 12.5665 14.8335 12.9674 14.8335H14.4254C14.8263 14.8335 15.1544 15.1335 15.1544 15.5001V16.5001C15.1544 16.8668 14.8263 17.1668 14.4254 17.1668H12.9674C12.5665 17.1668 12.2385 16.8668 12.2385 16.5001ZM18.0702 22.1668H14.4254V20.3335C14.4254 19.7801 14.9138 19.3335 15.5188 19.3335H16.9768C17.5818 19.3335 18.0702 19.7801 18.0702 20.3335V22.1668ZM20.2572 16.5001C20.2572 16.8668 19.9291 17.1668 19.5282 17.1668H18.0702C17.6693 17.1668 17.3413 16.8668 17.3413 16.5001V15.5001C17.3413 15.1335 17.6693 14.8335 18.0702 14.8335H19.5282C19.9291 14.8335 20.2572 15.1335 20.2572 15.5001V16.5001Z" fill="#C43C20"/>
</svg>
