<svg width="18" height="17" viewBox="0 0 18 17" fill="none" xmlns="http://www.w3.org/2000/svg">
<path d="M16.2639 7.45459V2.2004C16.2639 1.04203 15.5562 0.0996094 14.6865 0.0996094H3.41257C2.54278 0.0996094 1.83514 1.04203 1.83514 2.2004V7.45459C0.888567 7.80357 0.191406 8.96023 0.191406 10.3303V14.3226C0.191406 14.7094 0.426907 15.023 0.717356 15.023H1.83514V16.2831C1.83514 16.6699 2.07064 16.9835 2.36109 16.9835C2.65154 16.9835 2.88704 16.6699 2.88704 16.2831V15.023H15.212V16.2831C15.212 16.6699 15.4475 16.9835 15.7379 16.9835C16.0284 16.9835 16.2639 16.6699 16.2639 16.2831V15.023H17.3817C17.6721 15.023 17.9076 14.7094 17.9076 14.3226V10.3303C17.9076 8.96023 17.2104 7.80357 16.2639 7.45459ZM2.88704 2.2004C2.88704 1.81451 3.12282 1.5005 3.41257 1.5005H14.6865C14.9762 1.5005 15.212 1.81451 15.212 2.2004V7.3462H13.9797V5.94019C13.9797 4.71759 13.2328 3.72295 12.3148 3.72295H10.1885C9.7482 3.72295 9.34758 3.95212 9.04955 4.32515C8.75152 3.95216 8.3509 3.72295 7.91062 3.72295H5.7843C4.86627 3.72295 4.11942 4.71763 4.11942 5.94019V7.3462H2.88704V2.2004ZM12.9278 5.94019V7.3462H9.57547V5.94019C9.57547 5.49001 9.85048 5.12385 10.1884 5.12385H12.3148C12.6528 5.12385 12.9278 5.49006 12.9278 5.94019ZM8.52353 5.94019V7.3462H5.17122V5.94019C5.17122 5.49001 5.44624 5.12385 5.78419 5.12385H7.91052C8.24855 5.12385 8.52353 5.49006 8.52353 5.94019ZM16.8557 13.6221H1.24331V10.3303C1.24331 9.45736 1.77659 8.7471 2.43213 8.7471H15.6669C16.3224 8.7471 16.8557 9.45731 16.8557 10.3303V13.6221Z" fill="#8BA00D"/>
</svg>
