<svg width="33" height="32" viewBox="0 0 33 32" fill="none" xmlns="http://www.w3.org/2000/svg">
<circle cx="16.5" cy="16" r="16" fill="#F3F6E7"/>
<path d="M19.8926 10.333H12.6029C10.4159 10.333 8.95801 11.333 8.95801 13.6663V18.333C8.95801 20.6663 10.4159 21.6663 12.6029 21.6663H19.8926C22.0795 21.6663 23.5374 20.6663 23.5374 18.333V13.6663C23.5374 11.333 22.0795 10.333 19.8926 10.333ZM12.0561 17.6663C12.0561 17.9397 11.8083 18.1663 11.5094 18.1663C11.2105 18.1663 10.9627 17.9397 10.9627 17.6663V14.333C10.9627 14.0597 11.2105 13.833 11.5094 13.833C11.8083 13.833 12.0561 14.0597 12.0561 14.333V17.6663ZM16.2477 17.9997C15.0376 17.9997 14.0608 17.1063 14.0608 15.9997C14.0608 14.893 15.0376 13.9997 16.2477 13.9997C17.4578 13.9997 18.4346 14.893 18.4346 15.9997C18.4346 17.1063 17.4578 17.9997 16.2477 17.9997ZM21.5328 17.6663C21.5328 17.9397 21.2849 18.1663 20.986 18.1663C20.6872 18.1663 20.4393 17.9397 20.4393 17.6663V14.333C20.4393 14.0597 20.6872 13.833 20.986 13.833C21.2849 13.833 21.5328 14.0597 21.5328 14.333V17.6663Z" fill="#8BA00D"/>
</svg>
