<svg width="54" height="48" viewBox="0 0 54 48" fill="none" xmlns="http://www.w3.org/2000/svg">
<path d="M46.8794 13.96C45.0205 12.08 41.9151 11.14 37.41 11.14H36.8851V11.06C36.8851 7.70004 36.8851 3.54004 28.6623 3.54004H25.3382C17.1154 3.54004 17.1154 7.72004 17.1154 11.06V11.16H16.5906C12.0636 11.16 8.9801 12.1 7.12122 13.98C4.95617 16.18 5.02178 19.14 5.24047 21.16L5.26234 21.3L5.42975 22.9076C5.46206 23.2179 5.63675 23.4951 5.90447 23.6554C6.42766 23.9686 7.31336 24.491 7.8429 24.76C8.14907 24.94 8.47711 25.1 8.80514 25.26C12.5448 27.14 16.6562 28.4 20.8332 29.02C21.03 30.9 21.9266 33.1 26.716 33.1C31.5053 33.1 32.4457 30.92 32.5988 28.98C37.0601 28.32 41.3683 26.9 45.261 24.82C45.3923 24.76 45.4797 24.7 45.5891 24.64C46.459 24.1904 47.3616 23.636 48.1838 23.0933C48.4257 22.9337 48.5834 22.6748 48.6183 22.3871L48.6508 22.12L48.7601 21.18C48.782 21.06 48.782 20.96 48.8038 20.82C48.9788 18.8 48.9351 16.04 46.8794 13.96ZM29.384 27.66C29.384 29.78 29.384 30.1 26.6941 30.1C24.0042 30.1 24.0042 29.72 24.0042 27.68V25.16H29.384V27.66ZM20.2427 11.14V11.06C20.2427 7.66004 20.2427 6.40004 25.3382 6.40004H28.6623C33.7579 6.40004 33.7579 7.68004 33.7579 11.06V11.16H20.2427V11.14Z" fill="#8BA00D"/>
<path d="M46.5834 27.3907C47.2904 27.082 48.0736 27.6492 47.9974 28.4169L47.207 36.3799C46.7477 40.3799 44.9545 44.4599 35.332 44.4599H18.6677C9.04529 44.4599 7.25202 40.3799 6.79277 36.3999L6.04257 28.853C5.9671 28.0938 6.73362 27.5278 7.43823 27.8203C9.8998 28.8422 14.696 30.7605 17.5996 31.4463C17.9258 31.5233 18.193 31.749 18.3448 32.0478C19.6689 34.6534 22.5508 36.0399 26.7156 36.0399C30.8392 36.0399 33.7577 34.6 35.086 31.9882C35.2381 31.6892 35.5057 31.4635 35.8321 31.3861C38.9139 30.6553 44.0128 28.5132 46.5834 27.3907Z" fill="#8BA00D"/>
</svg>
