<svg width="19" height="21" viewBox="0 0 19 21" fill="none" xmlns="http://www.w3.org/2000/svg">
<rect width="19" height="21" fill="white"/>
<path d="M18.2733 8.41319L17.8592 7.92857L16.4058 3.59844C16.1581 2.86703 15.5248 2.38242 14.8184 2.37793H4.43739C3.73098 2.37793 3.09765 2.86703 2.85 3.59844L1.41688 7.87472L0.820086 8.48498C0.300427 8.97408 0 9.69203 0 10.4459V16.7549C0.00405983 17.7869 0.763248 18.6215 1.69701 18.6215H2.7688C3.70256 18.6215 4.46175 17.7869 4.46581 16.7549V15.8395H14.5342V16.7549C14.5382 17.7869 15.2974 18.6215 16.2312 18.6215H17.303C18.2368 18.6215 18.9959 17.7869 19 16.7549V10.2799C18.9959 9.57537 18.7361 8.90229 18.2733 8.41319ZM3.61325 3.90357C3.74316 3.52216 4.07201 3.27537 4.43739 3.27537H14.8224C15.1878 3.27537 15.5167 3.52665 15.6466 3.90357L16.9132 7.6728H15.9673C15.744 5.99011 14.3271 4.82793 12.8047 5.07921C11.5908 5.27665 10.6368 6.33113 10.4581 7.6728H2.34658L3.61325 3.90357ZM15.1391 7.6728H11.2782C11.5015 6.49267 12.5489 5.73883 13.6167 5.98562C14.3799 6.16511 14.9767 6.82472 15.1391 7.6728ZM3.65385 16.7549C3.64979 17.2933 3.25598 17.7241 2.7688 17.7241H1.69701C1.20983 17.7241 0.816026 17.2933 0.811966 16.7549V15.5792C1.05556 15.7542 1.37628 15.8395 1.69701 15.8395H3.65385V16.7549ZM18.188 16.7549C18.184 17.2933 17.7902 17.7241 17.303 17.7241H16.2312C15.744 17.7241 15.3502 17.2888 15.3462 16.7549V15.8395H17.303C17.6237 15.8395 17.9444 15.7542 18.188 15.5792V16.7549ZM17.303 14.942H1.69701C1.21389 14.9465 0.816026 14.5202 0.811966 13.9818V10.4459C0.811966 9.95229 1.0109 9.48113 1.35192 9.16254C1.35598 9.15806 1.3641 9.14908 1.36816 9.1446L1.9203 8.57024H17.2949L17.6846 9.03242C17.6887 9.04139 17.7009 9.04588 17.7049 9.05485C18.0094 9.37344 18.184 9.81767 18.184 10.2799V13.9818H18.188C18.184 14.5157 17.7861 14.9465 17.303 14.942Z" fill="#8BA00D"/>
<path d="M5.35711 10.3652H2.31223C2.08894 10.3652 1.90625 10.5672 1.90625 10.814V13.1473C1.90625 13.3941 2.08894 13.596 2.31223 13.596H5.35711C5.5804 13.596 5.76309 13.3941 5.76309 13.1473V10.814C5.76309 10.5672 5.5804 10.3652 5.35711 10.3652ZM4.95112 12.6986H2.71822V11.2627H4.95112V12.6986Z" fill="#8BA00D"/>
<path d="M16.6852 10.3652H13.6404C13.4171 10.3652 13.2344 10.5672 13.2344 10.814V13.1473C13.2344 13.3941 13.4171 13.596 13.6404 13.596H16.6852C16.9085 13.596 17.0912 13.3941 17.0912 13.1473V10.814C17.0912 10.5672 16.9085 10.3652 16.6852 10.3652ZM16.2792 12.6986H14.0463V11.2627H16.2792V12.6986Z" fill="#8BA00D"/>
<path d="M11.4606 12.25H7.5388C7.3155 12.25 7.13281 12.4519 7.13281 12.6987C7.13281 12.9455 7.3155 13.1474 7.5388 13.1474H11.4606C11.6839 13.1474 11.8666 12.9455 11.8666 12.6987C11.8666 12.4519 11.6839 12.25 11.4606 12.25Z" fill="#8BA00D"/>
<path d="M11.4606 10.8584H7.5388C7.3155 10.8584 7.13281 11.0603 7.13281 11.3071C7.13281 11.5539 7.3155 11.7558 7.5388 11.7558H11.4606C11.6839 11.7558 11.8666 11.5539 11.8666 11.3071C11.8666 11.0603 11.6839 10.8584 11.4606 10.8584Z" fill="#8BA00D"/>
</svg>
