<svg width="16" height="16" viewBox="0 0 16 16" fill="none" xmlns="http://www.w3.org/2000/svg">
<g clip-path="url(#clip0_1770_3113)">
<rect width="14.9189" height="14.9189" transform="translate(0.3125 0.40625)" fill="white"/>
<path d="M4.9753 6.262V7.16599C4.97895 7.20163 4.98718 7.23665 4.99977 7.27019L5.44151 8.15344V14.8586H6.84016V8.15344L7.28307 7.27019C7.29526 7.2366 7.3031 7.20158 7.30638 7.16599V6.262L7.53249 5.35777C7.53609 5.33907 7.53843 5.32014 7.53948 5.30112V2.97004C7.53948 2.90822 7.51493 2.84893 7.47121 2.80521C7.42749 2.76149 7.3682 2.73694 7.30638 2.73694H7.07327V1.33829H6.37394V1.10518C6.37394 1.04335 6.34938 0.984062 6.30567 0.940346C6.26195 0.89663 6.20266 0.87207 6.14084 0.87207C6.07901 0.87207 6.01972 0.89663 5.976 0.940346C5.93229 0.984062 5.90773 1.04335 5.90773 1.10518V1.33829H5.2084V2.73694H4.9753C4.91347 2.73694 4.85418 2.76149 4.81046 2.80521C4.76675 2.84893 4.74219 2.90822 4.74219 2.97004V5.30112C4.74324 5.32014 4.74558 5.33907 4.74918 5.35777L4.9753 6.262ZM6.37394 14.3923H5.90773V9.26396H6.37394V14.3923ZM6.37394 8.79775H5.90773V8.33153H6.37394V8.79775ZM6.46299 7.86531H5.81868L5.58557 7.3991H6.6961L6.46299 7.86531ZM6.84016 6.93288H5.44151V6.46666H6.84016V6.93288ZM6.89121 6.00045H5.39046L5.27391 5.53423H7.00777L6.89121 6.00045ZM5.67462 1.8045H6.60705V2.73694H5.67462V1.8045ZM5.2084 3.20315H7.07327V5.06802H5.2084V3.20315Z" fill="#8BA00D"/>
<path d="M6.60821 4.13574H5.67578V4.60196H6.60821V4.13574Z" fill="#8BA00D"/>
<path d="M8.23701 6.262V7.16599C8.2403 7.20158 8.24813 7.2366 8.26032 7.27019L8.70323 8.15344V14.8586H10.1019V8.15344L10.5448 7.27019C10.557 7.2366 10.5648 7.20158 10.5681 7.16599V6.262L10.7942 5.35777C10.7978 5.33907 10.8001 5.32014 10.8012 5.30112V2.97004C10.8012 2.90822 10.7766 2.84893 10.7329 2.80521C10.6892 2.76149 10.6299 2.73694 10.5681 2.73694H10.335V1.33829H9.63566V1.10518C9.63566 1.04335 9.6111 0.984062 9.56739 0.940346C9.52367 0.89663 9.46438 0.87207 9.40255 0.87207C9.34073 0.87207 9.28144 0.89663 9.23772 0.940346C9.19401 0.984062 9.16945 1.04335 9.16945 1.10518V1.33829H8.47012V2.73694H8.23701C8.17519 2.73694 8.1159 2.76149 8.07218 2.80521C8.02847 2.84893 8.00391 2.90822 8.00391 2.97004V5.30112C8.00496 5.32014 8.0073 5.33907 8.0109 5.35777L8.23701 6.262ZM9.63566 14.3923H9.16945V9.26396H9.63566V14.3923ZM9.63566 8.79775H9.16945V8.33153H9.63566V8.79775ZM9.72471 7.86531H9.0804L8.84729 7.3991H9.95782L9.72471 7.86531ZM10.1019 6.93288H8.70323V6.46666H10.1019V6.93288ZM10.1529 6.00045H8.65218L8.53563 5.53423H10.2695L10.1529 6.00045ZM8.93634 1.8045H9.86877V2.73694H8.93634V1.8045ZM8.47012 3.20315H10.335V5.06802H8.47012V3.20315Z" fill="#8BA00D"/>
<path d="M9.86993 4.13574H8.9375V4.60196H9.86993V4.13574Z" fill="#8BA00D"/>
</g>
<defs>
<clipPath id="clip0_1770_3113">
<rect width="14.9189" height="14.9189" fill="white" transform="translate(0.3125 0.40625)"/>
</clipPath>
</defs>
</svg>
