<svg width="17" height="16" viewBox="0 0 17 16" fill="none" xmlns="http://www.w3.org/2000/svg">
<path d="M11.2933 1.33337H5.70659C3.27992 1.33337 1.83325 2.78004 1.83325 5.20671V10.7867C1.83325 13.22 3.27992 14.6667 5.70659 14.6667H11.2866C13.7133 14.6667 15.1599 13.22 15.1599 10.7934V5.20671C15.1666 2.78004 13.7199 1.33337 11.2933 1.33337ZM7.79992 11.6734C7.60659 11.8667 7.23992 12.0534 6.97325 12.0934L5.33325 12.3267C5.27325 12.3334 5.21325 12.34 5.15325 12.34C4.87992 12.34 4.62659 12.2467 4.44659 12.0667C4.22659 11.8467 4.13325 11.5267 4.18659 11.1734L4.41992 9.53337C4.45992 9.26004 4.63992 8.90004 4.83992 8.70671L7.81325 5.73337C7.86659 5.87337 7.91992 6.01337 7.99325 6.17337C8.05992 6.31337 8.13325 6.46004 8.21325 6.59337C8.27992 6.70671 8.35325 6.81337 8.41325 6.89337C8.48659 7.00671 8.57325 7.11337 8.62659 7.17337C8.65992 7.22004 8.68659 7.25337 8.69992 7.26671C8.86659 7.46671 9.05992 7.65337 9.22659 7.79337C9.27325 7.84004 9.29992 7.86671 9.31325 7.87337C9.41325 7.95337 9.51325 8.03337 9.59992 8.09337C9.70659 8.17337 9.81325 8.24671 9.92659 8.30671C10.0599 8.38671 10.2066 8.46004 10.3533 8.53337C10.5066 8.60004 10.6466 8.66004 10.7866 8.70671L7.79992 11.6734ZM12.0799 7.39337L11.4666 8.01337C11.4266 8.05337 11.3733 8.07337 11.3199 8.07337C11.2999 8.07337 11.2733 8.07337 11.2599 8.06671C9.90658 7.68004 8.82659 6.60004 8.43992 5.24671C8.41992 5.17337 8.43992 5.09337 8.49325 5.04671L9.11325 4.42671C10.1266 3.41337 11.0933 3.43337 12.0866 4.42671C12.5933 4.93337 12.8399 5.42004 12.8399 5.92671C12.8333 6.40671 12.5866 6.88671 12.0799 7.39337Z" fill="white"/>
</svg>
