<svg width="28" height="18" viewBox="0 0 28 18" fill="none" xmlns="http://www.w3.org/2000/svg">
<path d="M27.75 7.75H25.25V5.25H22.75V7.75H20.25V10.25H22.75V12.75H25.25V10.25H27.75M9 7.75V10.75H14C13.75 12 12.5 14.5 9 14.5C6 14.5 3.625 12 3.625 9C3.625 6 6 3.5 9 3.5C10.75 3.5 11.875 4.25 12.5 4.875L14.875 2.625C13.375 1.125 11.375 0.25 9 0.25C4.125 0.25 0.25 4.125 0.25 9C0.25 13.875 4.125 17.75 9 17.75C14 17.75 17.375 14.25 17.375 9.25C17.375 8.625 17.375 8.25 17.25 7.75H9Z" fill="#171B03"/>
</svg>
