<svg width="48" height="48" viewBox="0 0 48 48" fill="none" xmlns="http://www.w3.org/2000/svg">
<path d="M18.2998 14.9805C17.1798 14.9805 16.2998 15.8805 16.2998 16.9805C16.2998 18.0805 17.1998 18.9805 18.2998 18.9805C19.3998 18.9805 20.2998 18.0805 20.2998 16.9805C20.2998 15.8805 19.3998 14.9805 18.2998 14.9805Z" fill="#8BA00D"/>
<path d="M42.92 10.08C41.24 6.18 37.54 4 32.38 4H15.62C9.2 4 4 9.2 4 15.62V32.38C4 37.54 6.18 41.24 10.08 42.92C10.46 43.08 10.9 42.98 11.18 42.7L42.7 11.18C43 10.88 43.1 10.44 42.92 10.08ZM21.06 24.48C20.28 25.24 19.26 25.6 18.24 25.6C17.22 25.6 16.2 25.22 15.42 24.48C13.38 22.56 11.14 19.5 12 15.86C12.76 12.56 15.68 11.08 18.24 11.08C20.8 11.08 23.72 12.56 24.48 15.88C25.32 19.5 23.08 22.56 21.06 24.48Z" fill="#FFCA2A"/>
<path d="M38.9398 41.0591C39.3798 41.4991 39.3198 42.2191 38.7798 42.5191C37.0198 43.4991 34.8798 43.9991 32.3798 43.9991H15.6198C15.0398 43.9991 14.7998 43.3191 15.1998 42.9191L27.2798 30.8391C27.6798 30.4391 28.2998 30.4391 28.6998 30.8391L38.9398 41.0591Z" fill="#8BA00D"/>
<path d="M44 15.6198V32.3798C44 34.8798 43.5 37.0398 42.52 38.7798C42.22 39.3198 41.5 39.3598 41.06 38.9398L30.82 28.6998C30.42 28.2998 30.42 27.6798 30.82 27.2798L42.9 15.1998C43.32 14.7998 44 15.0398 44 15.6198Z" fill="#8BA00D"/>
</svg>
