<svg width="48" height="48" viewBox="0 0 48 48" fill="none" xmlns="http://www.w3.org/2000/svg">
<path d="M25.3556 39.9139C25.9051 40.0418 25.9554 40.7614 25.4202 40.9398L22.2602 41.9798C14.3202 44.5398 10.1402 42.3998 7.56019 34.4598L5.00019 26.5598C2.44019 18.6198 4.56019 14.4198 12.5002 11.8598L13.5482 11.5128C14.3539 11.2459 15.138 12.0541 14.9093 12.8714C14.7959 13.2766 14.6868 13.6994 14.5802 14.1398L12.6202 22.5198C10.4202 31.9398 13.6402 37.1398 23.0602 39.3798L25.3556 39.9139Z" fill="#FFCA2A"/>
<path d="M34.3399 6.41904L30.9999 5.63904C24.3199 4.05904 20.3399 5.35904 17.9999 10.199C17.3999 11.419 16.9199 12.899 16.5199 14.599L14.5599 22.979C12.5999 31.339 15.1799 35.459 23.5199 37.439L26.8799 38.239C28.0399 38.519 29.1199 38.699 30.1199 38.779C36.3599 39.379 39.6799 36.459 41.3599 29.239L43.3199 20.879C45.2799 12.519 42.7199 8.37904 34.3399 6.41904ZM30.5799 26.659C30.3999 27.339 29.7999 27.779 29.1199 27.779C28.9999 27.779 28.8799 27.759 28.7399 27.739L22.9199 26.259C22.1199 26.059 21.6399 25.239 21.8399 24.439C22.0399 23.639 22.8599 23.159 23.6599 23.359L29.4799 24.839C30.2999 25.039 30.7799 25.859 30.5799 26.659ZM36.4399 19.899C36.2599 20.579 35.6599 21.019 34.9799 21.019C34.8599 21.019 34.7399 20.999 34.5999 20.979L24.8999 18.519C24.0999 18.319 23.6199 17.499 23.8199 16.699C24.0199 15.899 24.8399 15.419 25.6399 15.619L35.3399 18.079C36.1599 18.259 36.6399 19.079 36.4399 19.899Z" fill="#8BA00D"/>
</svg>
