<svg width="19" height="18" viewBox="0 0 19 18" fill="none" xmlns="http://www.w3.org/2000/svg">
<path d="M4.83578 4.16994C5.77786 4.27494 6.44286 4.60494 7.1237 5.24994L7.91536 5.99994L5.34245 8.43744C5.58786 8.52744 5.78578 8.63994 5.95203 8.72994C6.24495 8.90244 6.41911 8.99994 6.86245 8.99994C7.30578 8.99994 7.47995 8.90244 7.77286 8.72994C8.13703 8.52744 8.62786 8.24994 9.50661 8.24994C10.3854 8.24994 10.8762 8.52744 11.2324 8.72994C11.5254 8.89494 11.7074 8.99994 12.1429 8.99994C12.5783 8.99994 12.7604 8.90244 13.0533 8.72994C13.1483 8.67744 13.2591 8.61744 13.3779 8.55744L8.29536 3.74994C7.29786 2.80494 6.3637 2.39994 4.9862 2.28744C4.43203 2.24244 3.95703 2.66994 3.95703 3.19494V3.26244C3.95703 3.73494 4.34495 4.10994 4.83578 4.16994ZM16.9008 14.1824C16.7662 14.1374 16.6474 14.0699 16.5049 13.9799C16.1487 13.7774 15.6579 13.4999 14.7791 13.4999C13.9004 13.4999 13.4095 13.7774 13.0533 13.9799C12.7604 14.1524 12.5783 14.2499 12.1429 14.2499C11.7074 14.2499 11.5254 14.1449 11.2324 13.9799C10.8762 13.7774 10.3854 13.4999 9.50661 13.4999C8.62786 13.4999 8.13703 13.7774 7.77286 13.9799C7.47995 14.1524 7.30578 14.2499 6.86245 14.2499C6.41911 14.2499 6.24495 14.1524 5.95203 13.9799C5.59578 13.7774 5.10495 13.4999 4.2262 13.4999C3.34745 13.4999 2.85661 13.7774 2.49245 13.9799C2.34995 14.0624 2.2312 14.1299 2.09661 14.1824C1.79578 14.2799 1.58203 14.5199 1.58203 14.8199V14.9099C1.58203 15.4124 2.10453 15.7574 2.6112 15.5924C2.90411 15.4949 3.12578 15.3674 3.31578 15.2624C3.6087 15.0974 3.79078 14.9999 4.2262 14.9999C4.66161 14.9999 4.8437 15.0974 5.13661 15.2699C5.49286 15.4724 5.9837 15.7499 6.86245 15.7499C7.7412 15.7499 8.23203 15.4724 8.5962 15.2699C8.88911 15.0974 9.06328 14.9999 9.50661 14.9999C9.94203 14.9999 10.1241 15.1049 10.417 15.2699C10.7733 15.4724 11.2641 15.7499 12.1429 15.7499C13.0216 15.7499 13.5045 15.4724 13.8687 15.2699C14.1616 15.0974 14.3358 14.9999 14.7791 14.9999C15.2145 14.9999 15.3966 15.1049 15.6895 15.2699C15.8716 15.3749 16.0933 15.5024 16.3862 15.5999C16.8849 15.7649 17.4154 15.4199 17.4154 14.9174V14.8274C17.4154 14.5199 17.2016 14.2799 16.9008 14.1824ZM2.46078 12.2624C2.83286 12.1649 3.10203 12.0149 3.3237 11.8949C3.61661 11.7224 3.7987 11.6249 4.23411 11.6249C4.66953 11.6249 4.85161 11.7299 5.14453 11.8949C5.50078 12.0974 5.99161 12.3749 6.87036 12.3749C7.74911 12.3749 8.23995 12.0974 8.5962 11.8949C8.88911 11.7224 9.06328 11.6249 9.50661 11.6249C9.94203 11.6249 10.1241 11.7299 10.417 11.8949C10.7733 12.0974 11.2641 12.3749 12.1429 12.3749C13.0216 12.3749 13.5124 12.0974 13.8687 11.8949C14.1616 11.7224 14.3358 11.6249 14.7791 11.6249C15.2145 11.6249 15.3966 11.7299 15.6895 11.8949C15.8716 11.9999 16.0854 12.1199 16.3624 12.2174C16.4787 12.2572 16.6034 12.27 16.726 12.2548C16.8485 12.2396 16.9655 12.1967 17.067 12.1299C17.1686 12.0631 17.2517 11.9742 17.3096 11.8707C17.3674 11.7672 17.3983 11.6521 17.3995 11.5349V11.4449C17.3995 11.1449 17.1858 10.9049 16.8929 10.7999C16.7583 10.7549 16.6395 10.6874 16.4891 10.6049C16.1329 10.4024 15.642 10.1249 14.7633 10.1249C13.8845 10.1249 13.3937 10.4024 13.0374 10.6049C12.7445 10.7774 12.5624 10.8749 12.127 10.8749C11.6916 10.8749 11.5095 10.7699 11.2166 10.6049C10.8604 10.4024 10.3695 10.1249 9.49078 10.1249C8.61203 10.1249 8.1212 10.4024 7.76495 10.6049C7.47203 10.7774 7.29786 10.8749 6.85453 10.8749C6.41911 10.8749 6.23703 10.7699 5.94411 10.6049C5.58786 10.4024 5.09703 10.1249 4.21828 10.1249C3.33953 10.1249 2.8487 10.4024 2.49245 10.6049C2.34995 10.6874 2.2312 10.7549 2.09661 10.8074C1.79578 10.9049 1.58203 11.1449 1.58203 11.4449V11.6174C1.58203 12.0524 2.01745 12.3824 2.46078 12.2624V12.2624Z" fill="#8BA00D"/>
<path d="M13.0612 6C14.1543 6 15.0404 5.16053 15.0404 4.125C15.0404 3.08947 14.1543 2.25 13.0612 2.25C11.9681 2.25 11.082 3.08947 11.082 4.125C11.082 5.16053 11.9681 6 13.0612 6Z" fill="#8BA00D"/>
</svg>
