<svg width="33" height="32" viewBox="0 0 33 32" fill="none" xmlns="http://www.w3.org/2000/svg">
<circle cx="16.5" cy="16" r="16" fill="#FFFAEA"/>
<path d="M19.7101 10.373V9.33301C19.7101 9.05967 19.4623 8.83301 19.1634 8.83301C18.8645 8.83301 18.6167 9.05967 18.6167 9.33301V10.333H13.8784V9.33301C13.8784 9.05967 13.6305 8.83301 13.3316 8.83301C13.0328 8.83301 12.7849 9.05967 12.7849 9.33301V10.373C10.8167 10.5397 9.86173 11.613 9.71594 13.2063C9.70136 13.3997 9.87631 13.5597 10.0804 13.5597H22.4146C22.626 13.5597 22.801 13.393 22.7791 13.2063C22.6333 11.613 21.6784 10.5397 19.7101 10.373Z" fill="#FFCA2A"/>
<path d="M22.0793 14.5596H10.4157C10.0148 14.5596 9.68677 14.8596 9.68677 15.2262V19.3329C9.68677 21.3329 10.7802 22.6662 13.3316 22.6662H19.1634C21.7148 22.6662 22.8082 21.3329 22.8082 19.3329V15.2262C22.8082 14.8596 22.4802 14.5596 22.0793 14.5596ZM14.2137 20.1396C14.1772 20.1662 14.1408 20.1996 14.1043 20.2196C14.0606 20.2462 14.0169 20.2662 13.9731 20.2796C13.9294 20.2996 13.8856 20.3129 13.8419 20.3196C13.7909 20.3262 13.7471 20.3329 13.6961 20.3329C13.6013 20.3329 13.5066 20.3129 13.4191 20.2796C13.3243 20.2462 13.2514 20.1996 13.1785 20.1396C13.0473 20.0129 12.9671 19.8396 12.9671 19.6662C12.9671 19.4929 13.0473 19.3196 13.1785 19.1929C13.2514 19.1329 13.3243 19.0862 13.4191 19.0529C13.5503 18.9996 13.6961 18.9862 13.8419 19.0129C13.8856 19.0196 13.9294 19.0329 13.9731 19.0529C14.0169 19.0662 14.0606 19.0862 14.1043 19.1129C14.1408 19.1396 14.1772 19.1662 14.2137 19.1929C14.3449 19.3196 14.4251 19.4929 14.4251 19.6662C14.4251 19.8396 14.3449 20.0129 14.2137 20.1396ZM14.2137 17.8062C14.0752 17.9262 13.8856 17.9996 13.6961 17.9996C13.5066 17.9996 13.317 17.9262 13.1785 17.8062C13.0473 17.6796 12.9671 17.5062 12.9671 17.3329C12.9671 17.1596 13.0473 16.9862 13.1785 16.8596C13.3827 16.6729 13.7034 16.6129 13.9731 16.7196C14.0679 16.7529 14.1481 16.7996 14.2137 16.8596C14.3449 16.9862 14.4251 17.1596 14.4251 17.3329C14.4251 17.5062 14.3449 17.6796 14.2137 17.8062ZM16.7651 20.1396C16.6266 20.2596 16.437 20.3329 16.2475 20.3329C16.058 20.3329 15.8684 20.2596 15.7299 20.1396C15.5987 20.0129 15.5185 19.8396 15.5185 19.6662C15.5185 19.4929 15.5987 19.3196 15.7299 19.1929C15.9997 18.9462 16.4954 18.9462 16.7651 19.1929C16.8963 19.3196 16.9765 19.4929 16.9765 19.6662C16.9765 19.8396 16.8963 20.0129 16.7651 20.1396ZM16.7651 17.8062C16.7286 17.8329 16.6922 17.8596 16.6557 17.8862C16.612 17.9129 16.5683 17.9329 16.5245 17.9462C16.4808 17.9662 16.437 17.9796 16.3933 17.9862C16.3423 17.9929 16.2985 17.9996 16.2475 17.9996C16.058 17.9996 15.8684 17.9262 15.7299 17.8062C15.5987 17.6796 15.5185 17.5062 15.5185 17.3329C15.5185 17.1596 15.5987 16.9862 15.7299 16.8596C15.7955 16.7996 15.8757 16.7529 15.9705 16.7196C16.2402 16.6129 16.561 16.6729 16.7651 16.8596C16.8963 16.9862 16.9765 17.1596 16.9765 17.3329C16.9765 17.5062 16.8963 17.6796 16.7651 17.8062ZM19.3165 20.1396C19.178 20.2596 18.9884 20.3329 18.7989 20.3329C18.6094 20.3329 18.4198 20.2596 18.2813 20.1396C18.1501 20.0129 18.0699 19.8396 18.0699 19.6662C18.0699 19.4929 18.1501 19.3196 18.2813 19.1929C18.5511 18.9462 19.0468 18.9462 19.3165 19.1929C19.4477 19.3196 19.5279 19.4929 19.5279 19.6662C19.5279 19.8396 19.4477 20.0129 19.3165 20.1396ZM19.3165 17.8062C19.28 17.8329 19.2436 17.8596 19.2071 17.8862C19.1634 17.9129 19.1197 17.9329 19.0759 17.9462C19.0322 17.9662 18.9884 17.9796 18.9447 17.9862C18.8937 17.9929 18.8426 17.9996 18.7989 17.9996C18.6094 17.9996 18.4198 17.9262 18.2813 17.8062C18.1501 17.6796 18.0699 17.5062 18.0699 17.3329C18.0699 17.1596 18.1501 16.9862 18.2813 16.8596C18.3542 16.7996 18.4271 16.7529 18.5219 16.7196C18.6531 16.6662 18.7989 16.6529 18.9447 16.6796C18.9884 16.6862 19.0322 16.6996 19.0759 16.7196C19.1197 16.7329 19.1634 16.7529 19.2071 16.7796C19.2436 16.8062 19.28 16.8329 19.3165 16.8596C19.4477 16.9862 19.5279 17.1596 19.5279 17.3329C19.5279 17.5062 19.4477 17.6796 19.3165 17.8062Z" fill="#FFCA2A"/>
</svg>
