<svg width="16" height="21" viewBox="0 0 16 21" fill="none" xmlns="http://www.w3.org/2000/svg">
<path d="M14.9782 0.181177L0.135995 19.9477C-0.15474 20.3349 0.0515085 21 0.463264 21H15.3055C15.5611 21 15.7683 20.724 15.7683 20.3836V0.617067C15.7684 0.0694814 15.2694 -0.206551 14.9782 0.181177ZM14.8427 19.7672H1.58072L3.93471 16.6322L4.57943 17.4908C4.66981 17.6112 4.78827 17.6713 4.9067 17.6713C5.31537 17.6713 5.5264 17.0085 5.23397 16.619L4.58925 15.7604L5.90952 14.0021L6.55425 14.8608C6.64463 14.9811 6.76309 15.0413 6.88152 15.0413C7.29019 15.0413 7.50122 14.3784 7.20879 13.989L6.56409 13.1304L7.88437 11.3721L8.5291 12.2307C8.61948 12.3511 8.73794 12.4112 8.85637 12.4112C9.26504 12.4112 9.47607 11.7484 9.18364 11.3589L8.53894 10.5003L9.85922 8.74201L10.5039 9.60064C10.5943 9.72101 10.7128 9.78117 10.8312 9.78117C11.2399 9.78117 11.4509 9.11831 11.1585 8.72886L10.5138 7.87027L11.8341 6.11195L12.4788 6.97058C12.5692 7.09095 12.6876 7.15111 12.8061 7.15111C13.2147 7.15111 13.4258 6.48826 13.1333 6.0988L12.4886 5.24021L14.8426 2.10523V19.7672H14.8427Z" fill="#8BA00D"/>
<path d="M11.9849 10.3726L7.78834 15.9614C7.4976 16.3486 7.70385 17.0138 8.11561 17.0138H12.3122C12.5678 17.0138 12.775 16.7378 12.775 16.3973V10.8085C12.775 10.2609 12.2761 9.98486 11.9849 10.3726ZM11.8493 15.7809H9.23306L11.8493 12.2966V15.7809Z" fill="#8BA00D"/>
</svg>
