<svg width="48" height="48" viewBox="0 0 48 48" fill="none" xmlns="http://www.w3.org/2000/svg">
<path d="M44.7198 16.54L44.1398 11C43.2998 4.96 40.5598 2.5 34.6998 2.5H29.9798H27.0198H20.9398H17.9798H13.1798C7.29979 2.5 4.57979 4.96 3.71979 11.06L3.17979 16.56C2.97979 18.7 3.55979 20.78 4.81979 22.4C6.33979 24.38 8.67979 25.5 11.2798 25.5C13.7998 25.5 16.2198 24.24 17.7398 22.22C19.0998 24.24 21.4198 25.5 23.9998 25.5C26.5798 25.5 28.8398 24.3 30.2198 22.3C31.7598 24.28 34.1398 25.5 36.6198 25.5C39.2798 25.5 41.6798 24.32 43.1798 22.24C44.3798 20.64 44.9198 18.62 44.7198 16.54Z" fill="#FFCA2A"/>
<path d="M22.7002 33.3205C20.1602 33.5805 18.2402 35.7405 18.2402 38.3005V43.7805C18.2402 44.3205 18.6802 44.7605 19.2202 44.7605H28.7602C29.3002 44.7605 29.7402 44.3205 29.7402 43.7805V39.0005C29.7602 34.8205 27.3002 32.8405 22.7002 33.3205Z" fill="#9FB036"/>
<path d="M42.7398 28.8002V34.7602C42.7398 40.2802 38.2598 44.7602 32.7398 44.7602C32.1998 44.7602 31.7598 44.3202 31.7598 43.7802V39.0002C31.7598 36.4402 30.9798 34.4402 29.4598 33.0802C28.1198 31.8602 26.2998 31.2602 24.0398 31.2602C23.5398 31.2602 23.0398 31.2802 22.4998 31.3402C18.9398 31.7002 16.2398 34.7002 16.2398 38.3002V43.7802C16.2398 44.3202 15.7998 44.7602 15.2598 44.7602C9.73977 44.7602 5.25977 40.2802 5.25977 34.7602V28.8402C5.25977 27.4402 6.63977 26.5002 7.93977 26.9602C8.47977 27.1402 9.01977 27.2802 9.57977 27.3602C9.81977 27.4002 10.0798 27.4402 10.3198 27.4402C10.6398 27.4802 10.9598 27.5002 11.2798 27.5002C13.5998 27.5002 15.8798 26.6402 17.6798 25.1602C19.3998 26.6402 21.6398 27.5002 23.9998 27.5002C26.3798 27.5002 28.5798 26.6802 30.2998 25.2002C32.0998 26.6602 34.3398 27.5002 36.6198 27.5002C36.9798 27.5002 37.3398 27.4802 37.6798 27.4402C37.9198 27.4202 38.1398 27.4002 38.3598 27.3602C38.9798 27.2802 39.5398 27.1002 40.0998 26.9202C41.3998 26.4802 42.7398 27.4402 42.7398 28.8002Z" fill="#9FB036"/>
</svg>
