<svg width="126" height="175" viewBox="0 0 126 175" fill="none" xmlns="http://www.w3.org/2000/svg">
<path d="M118.924 90.002C136.925 42.5 110.424 18 110.424 18C110.424 18 63.4072 18.1435 45.4243 68.002C34.4243 98.5 64.4243 129 64.4243 129C64.4243 129 109.777 114.141 118.924 90.002Z" fill="#BC391C"/>
<path d="M90.5129 61.5L101.013 36C95.3447 39.8924 92.169 43.7297 86.5129 59L80.5129 43.5C80.5129 43.5 78.5161 53.2857 80.5129 59C81.4639 61.7216 81.5222 61.659 82.0129 64.5C82.9493 69.9218 77.5129 78 77.5129 78C77.5129 78 76.1708 75.9925 75.0129 75C71.5129 72 67.0129 63 67.0129 63C67.0129 63 68.4886 73.2568 71.5129 79C72.6991 81.2527 75.0129 84.5 75.0129 84.5L69.0129 97.5C69.0129 97.5 66.8162 94.7808 65.5128 92.5C63.5128 89 59.0129 82.5 59.0129 82.5C59.0129 82.5 58.4961 94.8222 64.0128 98.5C67.0128 100.5 67.0129 105 67.0129 105C63.7551 114.496 63.4771 118.874 64.0128 128.5C67.0571 124.832 69.6661 121.583 78.0129 105C78.0129 105 81.7733 105.689 84.0129 105C90.5129 103 97.5129 95.5 97.5129 95.5C97.5129 95.5 89.0129 99 84.0129 99C81.543 99 78.0129 101 78.0129 101L84.0129 86C84.0129 86 88.0435 85.3301 90.5129 84.5C96.9297 82.3429 105.013 75 105.013 75C105.013 75 96.0129 78.5 92.0129 79C88.6291 79.423 84.0129 82.5 84.0129 82.5C84.0129 82.5 86.0129 69.5 92.0129 65.5C93.4751 64.5252 96.5507 64.4748 98.0129 63.5C105.513 58.5 107.013 53 107.013 53L90.5129 61.5Z" fill="#6A2A07"/>
<path d="M60.9243 144.002C78.9251 96.5 52.4243 72 52.4243 72C52.4243 72 5.40724 72.1435 -12.5757 122.002C-23.5757 152.5 6.42432 183 6.42432 183C6.42432 183 51.777 168.141 60.9243 144.002Z" fill="#FFE548"/>
<path d="M32.5129 115.5L43.0129 90C37.3447 93.8924 34.169 97.7297 28.5129 113L22.5129 97.5C22.5129 97.5 20.5161 107.286 22.5129 113C23.4639 115.722 23.5222 115.659 24.0129 118.5C24.9493 123.922 19.5129 132 19.5129 132C19.5129 132 18.1708 129.992 17.0129 129C13.5129 126 9.01286 117 9.01286 117C9.01286 117 10.4886 127.257 13.5129 133C14.6991 135.253 17.0129 138.5 17.0129 138.5L11.0129 151.5C11.0129 151.5 8.81619 148.781 7.51282 146.5C5.51277 143 1.01286 136.5 1.01286 136.5C1.01286 136.5 0.496109 148.822 6.01285 152.5C9.01285 154.5 9.01286 159 9.01286 159C5.75515 168.496 5.47708 172.874 6.01285 182.5C9.0571 178.832 11.6661 175.583 20.0129 159C20.0129 159 23.7733 159.689 26.0129 159C32.5129 157 39.5129 149.5 39.5129 149.5C39.5129 149.5 31.0129 153 26.0129 153C23.543 153 20.0129 155 20.0129 155L26.0129 140C26.0129 140 30.0435 139.33 32.5129 138.5C38.9297 136.343 47.0129 129 47.0129 129C47.0129 129 38.0129 132.5 34.0129 133C30.6291 133.423 26.0129 136.5 26.0129 136.5C26.0129 136.5 28.0129 123.5 34.0129 119.5C35.4751 118.525 38.5507 118.475 40.0129 117.5C47.5129 112.5 49.0129 107 49.0129 107L32.5129 115.5Z" fill="url(#paint0_linear_111_3819)"/>
<path d="M50.9243 72.002C68.9251 24.5 42.4243 0 42.4243 0C42.4243 0 -4.59276 0.14349 -22.5757 50.002C-33.5757 80.5 -3.57568 111 -3.57568 111C-3.57568 111 41.777 96.1407 50.9243 72.002Z" fill="#A0AE37"/>
<path d="M22.5129 43.5L33.0129 18C27.3447 21.8924 24.169 25.7297 18.5129 41L12.5129 25.5C12.5129 25.5 10.5161 35.2857 12.5129 41C13.4639 43.7216 13.5222 43.659 14.0129 46.5C14.9493 51.9218 9.51286 60 9.51286 60C9.51286 60 8.17076 57.9925 7.01286 57C3.51286 54 -0.987136 45 -0.987136 45C-0.987136 45 0.488647 55.2568 3.51286 61C4.69906 63.2527 7.01286 66.5 7.01286 66.5L1.01286 79.5C1.01286 79.5 -1.18381 76.7808 -2.48718 74.5C-4.48723 71 -8.98714 64.5 -8.98714 64.5C-8.98714 64.5 -9.50389 76.8222 -3.98715 80.5C-0.987154 82.5 -0.987136 87 -0.987136 87C-4.24485 96.4962 -4.52292 100.874 -3.98715 110.5C-0.942898 106.832 1.66608 103.583 10.0129 87C10.0129 87 13.7733 87.6891 16.0129 87C22.5129 85 29.5129 77.5 29.5129 77.5C29.5129 77.5 21.0129 81 16.0129 81C13.543 81 10.0129 83 10.0129 83L16.0129 68C16.0129 68 20.0435 67.3301 22.5129 66.5C28.9297 64.3429 37.0129 57 37.0129 57C37.0129 57 28.0129 60.5 24.0129 61C20.6291 61.423 16.0129 64.5 16.0129 64.5C16.0129 64.5 18.0129 51.5 24.0129 47.5C25.4751 46.5252 28.5507 46.4748 30.0129 45.5C37.5129 40.5 39.0129 35 39.0129 35L22.5129 43.5Z" fill="#7E8C41"/>
<defs>
<linearGradient id="paint0_linear_111_3819" x1="-0.999999" y1="148.5" x2="47" y2="167.5" gradientUnits="userSpaceOnUse">
<stop stop-color="#FF8624"/>
<stop offset="0.209528" stop-color="#FF5722" stop-opacity="0.8"/>
<stop offset="0.402636" stop-color="#FF621F" stop-opacity="0.8"/>
<stop offset="0.730429" stop-color="#FF2C1E" stop-opacity="0.868032"/>
<stop offset="1" stop-color="#FF991C"/>
<stop offset="1" stop-color="#FF732C" stop-opacity="0"/>
</linearGradient>
</defs>
</svg>
