<svg width="16" height="16" viewBox="0 0 16 16" fill="none" xmlns="http://www.w3.org/2000/svg">
<g clip-path="url(#clip0_1770_3119)">
<path d="M8.36344 10.9629C7.6504 10.9629 7.07031 11.5411 7.07031 12.2514C7.07031 12.962 7.6504 13.5404 8.36344 13.5404C9.07673 13.5404 9.65681 12.962 9.65681 12.2514C9.65681 11.5411 9.07661 10.9629 8.36344 10.9629Z" fill="#8BA00D"/>
<path d="M11.5185 9.20736C10.6766 8.36594 9.55598 7.90234 8.36345 7.90234C7.17551 7.90234 6.05794 8.36288 5.21628 9.199C4.87635 9.53729 4.87576 10.0884 5.21487 10.4273C5.3796 10.5923 5.59893 10.6829 5.83237 10.6829C6.06476 10.6829 6.28326 10.5927 6.44776 10.4292C6.95995 9.92017 7.64029 9.63978 8.36345 9.63978C9.08932 9.63978 9.77154 9.92193 10.2841 10.434C10.4488 10.5985 10.668 10.6893 10.9012 10.6893C11.1339 10.6893 11.3522 10.5992 11.5169 10.4357C11.8573 10.0973 11.8578 9.54647 11.5185 9.20736Z" fill="#8BA00D"/>
<path d="M15.5666 5.16754C13.6419 3.24753 11.0818 2.19043 8.35861 2.19043C5.63904 2.19043 3.0816 3.24505 1.15744 5.16051C0.817508 5.4988 0.817273 6.04994 1.15697 6.38881C1.32158 6.55295 1.54055 6.6432 1.77353 6.6432C2.00639 6.6432 2.22513 6.5533 2.38974 6.38928C3.98468 4.80175 6.1044 3.92727 8.35861 3.92727C10.6161 3.92727 12.738 4.80352 14.3333 6.39528C14.4979 6.55954 14.7172 6.65014 14.95 6.65014C15.1828 6.65014 15.4015 6.55977 15.566 6.39599C15.9061 6.05744 15.9064 5.50609 15.5666 5.16754Z" fill="#8BA00D"/>
<path d="M13.4932 7.23777C12.1231 5.87086 10.3012 5.11816 8.36304 5.11816C6.42841 5.11816 4.6092 5.86851 3.24029 7.23059C3.07545 7.3945 2.98473 7.61253 2.98438 7.84468C2.98438 8.0766 3.07474 8.29487 3.23935 8.45901C3.40397 8.62327 3.62306 8.71387 3.85603 8.71387C4.08865 8.71387 4.30739 8.6235 4.47224 8.45995C5.51216 7.42533 6.89401 6.85536 8.36304 6.85536C9.83514 6.85536 11.2189 7.42733 12.2595 8.46548C12.4243 8.62997 12.6433 8.72058 12.8764 8.72058C13.1092 8.72058 13.328 8.63021 13.4924 8.46642C13.657 8.30251 13.748 8.08448 13.7481 7.85233C13.7483 7.62018 13.6577 7.40215 13.4932 7.23777Z" fill="#8BA00D"/>
</g>
<defs>
<clipPath id="clip0_1770_3119">
<rect width="14.9189" height="14.9189" fill="white" transform="translate(0.90625 0.40625)"/>
</clipPath>
</defs>
</svg>
